# Original procedural Narcissus. Mature mesh; growth is driven in Unity.
mtllib Narcissus.mtl
v 0.055 0 0
v 0.038890872 0.038890872 0
v -2.4041265E-09 0.055 0
v -0.038890872 0.038890872 0
v -0.055 -4.808253E-09 0
v -0.038890865 -0.03889088 0
v 6.558684E-10 -0.055 0
v 0.038890887 -0.038890857 0
v 0.055 9.616506E-09 0
v 0.0803453 0.035714287 0.17142859
v 0.06507301 0.07258485 0.17142859
v 0.02820244 0.08785714 0.17142859
v -0.008668127 0.07258485 0.17142859
v -0.023940416 0.035714284 0.17142859
v -0.008668119 -0.0011562854 0.17142859
v 0.028202442 -0.016428571 0.17142859
v 0.06507302 -0.0011562668 0.17142859
v 0.0803453 0.035714295 0.17142859
v 0.100104764 0.071428575 0.34285718
v 0.08566931 0.10627884 0.34285718
v 0.050819043 0.12071429 0.34285718
v 0.015968785 0.10627884 0.34285718
v 0.0015333332 0.07142857 0.34285718
v 0.015968792 0.03657831 0.34285718
v 0.050819047 0.022142861 0.34285718
v 0.085669324 0.036578324 0.34285718
v 0.100104764 0.07142858 0.34285718
v 0.10979888 0.10714286 0.51428574
v 0.09620027 0.13997282 0.51428574
v 0.06337031 0.15357143 0.51428574
v 0.03054035 0.13997282 0.51428574
v 0.016941737 0.10714285 0.51428574
v 0.030540358 0.074312896 0.51428574
v 0.06337031 0.060714286 0.51428574
v 0.09620028 0.07431291 0.51428574
v 0.10979888 0.107142866 0.51428574
v 0.10694174 0.14285715 0.68571436
v 0.09417996 0.1736668 0.68571436
v 0.06337031 0.18642858 0.68571436
v 0.032560658 0.1736668 0.68571436
v 0.019798882 0.14285715 0.68571436
v 0.03256066 0.11204749 0.68571436
v 0.06337031 0.09928572 0.68571436
v 0.09417997 0.11204751 0.68571436
v 0.10694174 0.14285716 0.68571436
v 0.091533326 0.17857143 0.8571429
v 0.07960839 0.20736077 0.8571429
v 0.05081904 0.21928573 0.8571429
v 0.022029692 0.20736077 0.8571429
v 0.010104753 0.17857143 0.8571429
v 0.022029696 0.14978208 0.8571429
v 0.05081904 0.13785714 0.8571429
v 0.079608396 0.14978209 0.8571429
v 0.091533326 0.17857143 0.8571429
v 0.066059574 0.21428572 1.0285715
v 0.05497148 0.24105476 1.0285715
v 0.028202431 0.25214285 1.0285715
v 0.0014333893 0.24105476 1.0285715
v -0.009654712 0.21428572 1.0285715
v 0.0014333948 0.18751667 1.0285715
v 0.028202433 0.17642857 1.0285715
v 0.054971486 0.18751669 1.0285715
v 0.066059574 0.21428572 1.0285715
v 0.034999993 0.25 1.2
v 0.024748731 0.27474874 1.2
v -7.2123787E-09 0.285 1.2
v -0.024748743 0.27474874 1.2
v -0.035000008 0.25 1.2
v -0.024748739 0.22525126 1.2
v -5.2651092E-09 0.215 1.2
v 0.024748739 0.22525127 1.2
v 0.034999993 0.25 1.2
v -0.001 0 0
v 0 0 0
v 0.001 0 0
v -0.09538388 0.15 0.05740252
v -0.033125002 0.15 0.08036353
v 0.029133875 0.15 0.05740252
v -0.19015008 0.3 0.10606602
v -0.095 0.3 0.14849243
v 0.00015009195 0.3 0.10606602
v -0.30015534 0.45000002 0.13858193
v -0.185625 0.45000002 0.1940147
v -0.071094655 0.45000002 0.13858193
v -0.426 0.6 0.15
v -0.305 0.6 0.21000001
v -0.18400002 0.6 0.15
v -0.5676553 0.75 0.13858193
v -0.453125 0.75 0.1940147
v -0.33859465 0.75 0.13858193
v -0.7251501 0.90000004 0.10606602
v -0.63 0.90000004 0.14849243
v -0.5348499 0.90000004 0.10606602
v -0.8978839 1.0500001 0.057402495
v -0.83562505 1.0500001 0.08036349
v -0.7733662 1.0500001 0.057402495
v -1.0710001 1.2 -1.3113417E-08
v -1.07 1.2 -1.8358783E-08
v -1.069 1.2 -1.3113417E-08
v -0.001 0 0
v 0 0 0
v 0.001 0 0
v -0.029133875 -0.10625 0.05740252
v 0.033125002 -0.10625 0.08036353
v 0.09538388 -0.10625 0.05740252
v -0.00015009195 -0.2125 0.10606602
v 0.095 -0.2125 0.14849243
v 0.19015008 -0.2125 0.10606602
v 0.071094655 -0.31875002 0.13858193
v 0.185625 -0.31875002 0.1940147
v 0.30015534 -0.31875002 0.13858193
v 0.18400002 -0.425 0.15
v 0.305 -0.425 0.21000001
v 0.426 -0.425 0.15
v 0.33859465 -0.53125 0.13858193
v 0.453125 -0.53125 0.1940147
v 0.5676553 -0.53125 0.13858193
v 0.5348499 -0.63750005 0.10606602
v 0.63 -0.63750005 0.14849243
v 0.7251501 -0.63750005 0.10606602
v 0.7733662 -0.74375004 0.057402495
v 0.83562505 -0.74375004 0.08036349
v 0.8978839 -0.74375004 0.057402495
v 1.069 -0.85 -1.3113417E-08
v 1.07 -0.85 -1.8358783E-08
v 1.0710001 -0.85 -1.3113417E-08
v 0.12 0.246 1.2800001
v 0.12 0.24733333 1.2355556
v 0.12 0.24866667 1.2088889
v 0.12 0.25 1.2
v 0.12 0.25133333 1.2088889
v 0.12 0.25266665 1.2355556
v 0.12 0.254 1.2800001
v 0.19666666 0.063231975 1.3024604
v 0.19666666 0.12548798 1.258016
v 0.19666666 0.18774399 1.2313493
v 0.19666666 0.25 1.2224604
v 0.19666666 0.312256 1.2313493
v 0.19666666 0.37451202 1.258016
v 0.19666666 0.43676803 1.3024604
v 0.27333334 -0.034403354 1.3216667
v 0.27333334 0.060397774 1.2772223
v 0.27333334 0.15519889 1.2505556
v 0.27333334 0.25 1.2416667
v 0.27333334 0.34480113 1.2505556
v 0.27333334 0.43960223 1.2772223
v 0.27333334 0.5344033 1.3216667
v 0.35 -0.10525128 1.3361397
v 0.35 0.013165832 1.2916952
v 0.35 0.13158292 1.2650285
v 0.35 0.25 1.2561396
v 0.35 0.36841708 1.2650286
v 0.35 0.48683417 1.2916952
v 0.35 0.6052513 1.3361397
v 0.42666668 -0.15472609 1.344609
v 0.42666668 -0.019817382 1.3001646
v 0.42666668 0.11509131 1.2734979
v 0.42666668 0.25 1.264609
v 0.42666668 0.3849087 1.2734979
v 0.42666668 0.51981735 1.3001646
v 0.42666668 0.6547261 1.344609
v 0.50333333 -0.18419576 1.3461001
v 0.50333333 -0.039463818 1.3016555
v 0.50333333 0.10526809 1.2749889
v 0.50333333 0.25 1.2661
v 0.50333333 0.39473194 1.2749889
v 0.50333333 0.5394638 1.3016555
v 0.50333333 0.68419576 1.3461001
v 0.58 -0.194 1.34
v 0.58 -0.046000004 1.2955556
v 0.58 0.102 1.268889
v 0.58 0.25 1.26
v 0.58 0.398 1.268889
v 0.58 0.546 1.2955556
v 0.58 0.694 1.34
v 0.65666664 -0.18419576 1.3261001
v 0.65666664 -0.039463818 1.2816556
v 0.65666664 0.10526809 1.2549889
v 0.65666664 0.25 1.2461001
v 0.65666664 0.39473194 1.2549889
v 0.65666664 0.5394638 1.2816556
v 0.65666664 0.68419576 1.3261001
v 0.73333335 -0.15472606 1.3046091
v 0.73333335 -0.019817352 1.2601645
v 0.73333335 0.115091324 1.2334979
v 0.73333335 0.25 1.224609
v 0.73333335 0.3849087 1.2334979
v 0.73333335 0.51981735 1.2601645
v 0.73333335 0.654726 1.3046091
v 0.81 -0.10525128 1.2761397
v 0.81 0.013165832 1.2316952
v 0.81 0.13158292 1.2050285
v 0.81 0.25 1.1961397
v 0.81 0.36841708 1.2050285
v 0.81 0.48683417 1.2316952
v 0.81 0.6052513 1.2761397
v 0.88666666 -0.034403354 1.2416668
v 0.88666666 0.060397774 1.1972222
v 0.88666666 0.15519889 1.1705556
v 0.88666666 0.25 1.1616668
v 0.88666666 0.34480113 1.1705556
v 0.88666666 0.43960223 1.1972222
v 0.88666666 0.5344033 1.2416668
v 0.96333337 0.063232034 1.2024604
v 0.96333337 0.12548803 1.158016
v 0.96333337 0.18774402 1.1313493
v 0.96333337 0.25 1.1224604
v 0.96333337 0.31225598 1.1313493
v 0.96333337 0.37451196 1.158016
v 0.96333337 0.43676797 1.2024604
v 1.04 0.246 1.1600001
v 1.04 0.24733333 1.1155555
v 1.04 0.24866667 1.0888889
v 1.04 0.25 1.08
v 1.04 0.25133333 1.0888889
v 1.04 0.25266665 1.1155555
v 1.04 0.254 1.1600001
v 0.0634641 0.35192305 1.2800001
v 0.062309396 0.35258973 1.2355556
v 0.0611547 0.3532564 1.2088889
v 0.059999995 0.35392305 1.2
v 0.058845297 0.3545897 1.2088889
v 0.057690594 0.35525638 1.2355556
v 0.056535892 0.35592306 1.2800001
v 0.26007918 0.32693434 1.3024604
v 0.20616388 0.35806233 1.258016
v 0.1522486 0.38919032 1.2313493
v 0.09833332 0.42031834 1.2224604
v 0.044418026 0.45144632 1.2313493
v -0.009497248 0.48257434 1.258016
v -0.06341254 0.51370233 1.3024604
v 0.3829672 0.344512 1.3216667
v 0.30086702 0.39191252 1.2772223
v 0.21876684 0.43931308 1.2505556
v 0.13666666 0.48671362 1.2416667
v 0.054566465 0.5341142 1.2505556
v -0.027533697 0.5815147 1.2772223
v -0.10963389 0.6289153 1.3216667
v 0.48265663 0.37548327 1.3361397
v 0.3801044 0.43469182 1.2916952
v 0.2775522 0.49390036 1.2650285
v 0.17499998 0.55310893 1.2561396
v 0.072447754 0.61231744 1.2650286
v -0.030104429 0.67152596 1.2916952
v -0.13265666 0.7307345 1.3361397
v 0.5638364 0.4171412 1.344609
v 0.44700205 0.48459554 1.3001646
v 0.33016768 0.5520499 1.2734979
v 0.21333331 0.6195042 1.264609
v 0.09649895 0.68695855 1.2734979
v -0.020335391 0.7544129 1.3001646
v -0.13716975 0.8218672 1.344609
v 0.6276912 0.46880162 1.3461001
v 0.5023497 0.54116756 1.3016555
v 0.37700814 0.6135335 1.2749889
v 0.25166664 0.6858995 1.2661
v 0.12632509 0.75826544 1.2749889
v 0.0009835958 0.8306314 1.3016555
v -0.12435794 0.9029973 1.3461001
v 0.67451525 0.5302947 1.34
v 0.54634345 0.6042948 1.2955556
v 0.4181717 0.6782947 1.268889
v 0.28999996 0.7522947 1.26
v 0.16182818 0.8262947 1.268889
v 0.033656448 0.90029466 1.2955556
v -0.09451535 0.9742947 1.34
v 0.70435786 0.6015921 1.3261001
v 0.5790163 0.6739581 1.2816556
v 0.4536748 0.74632406 1.2549889
v 0.3283333 0.81869 1.2461001
v 0.20299172 0.89105594 1.2549889
v 0.07765025 0.96342194 1.2816556
v -0.047691286 1.0357879 1.3261001
v 0.7171697 0.68272233 1.3046091
v 0.60033536 0.75017667 1.2601645
v 0.483501 0.817631 1.2334979
v 0.36666664 0.88508534 1.224609
v 0.24983227 0.9525397 1.2334979
v 0.13299794 1.019994 1.2601645
v 0.016163588 1.0874484 1.3046091
v 0.7126566 0.773855 1.2761397
v 0.6101044 0.83306354 1.2316952
v 0.50755215 0.8922721 1.2050285
v 0.40499997 0.9514806 1.1961397
v 0.30244774 1.0106891 1.2050285
v 0.19989556 1.0698977 1.2316952
v 0.097343326 1.1291063 1.2761397
v 0.68963385 0.87567425 1.2416668
v 0.60753363 0.9230748 1.1972222
v 0.5254335 0.9704754 1.1705556
v 0.4433333 1.0178759 1.1616668
v 0.36123312 1.0652764 1.1705556
v 0.27913296 1.1126771 1.1972222
v 0.19703275 1.1600776 1.2416668
v 0.6434125 0.9908872 1.2024604
v 0.5894972 1.0220152 1.158016
v 0.53558195 1.0531433 1.1313493
v 0.48166665 1.0842712 1.1224604
v 0.42775136 1.1153991 1.1313493
v 0.3738361 1.1465272 1.158016
v 0.31992084 1.1776552 1.2024604
v 0.523464 1.1486664 1.1600001
v 0.5223093 1.149333 1.1155555
v 0.52115464 1.1499997 1.0888889
v 0.5199999 1.1506665 1.08
v 0.5188452 1.1513331 1.0888889
v 0.51769054 1.1519997 1.1155555
v 0.5165358 1.1526663 1.1600001
v -0.056535903 0.35592306 1.2800001
v -0.057690606 0.35525638 1.2355556
v -0.058845304 0.3545897 1.2088889
v -0.060000006 0.35392305 1.2
v -0.06115471 0.35325637 1.2088889
v -0.062309407 0.35258973 1.2355556
v -0.063464105 0.35192305 1.2800001
v 0.0634125 0.51370233 1.3024604
v 0.009497216 0.48257434 1.258016
v -0.044418063 0.45144632 1.2313493
v -0.098333344 0.4203183 1.2224604
v -0.15224864 0.38919032 1.2313493
v -0.20616391 0.35806233 1.258016
v -0.2600792 0.3269343 1.3024604
v 0.10963383 0.6289153 1.3216667
v 0.02753365 0.5815147 1.2772223
v -0.054566517 0.5341142 1.2505556
v -0.13666669 0.48671362 1.2416667
v -0.21876687 0.43931305 1.2505556
v -0.30086702 0.3919125 1.2772223
v -0.38296717 0.34451193 1.3216667
v 0.1326566 0.7307345 1.3361397
v 0.030104388 0.67152596 1.2916952
v -0.072447814 0.61231744 1.2650285
v -0.17500001 0.5531089 1.2561396
v -0.27755225 0.4939003 1.2650286
v -0.38010442 0.4346918 1.2916952
v -0.48265666 0.3754832 1.3361397
v 0.13716969 0.8218672 1.344609
v 0.020335332 0.7544129 1.3001646
v -0.09649902 0.68695855 1.2734979
v -0.21333337 0.6195042 1.264609
v -0.33016774 0.5520498 1.2734979
v -0.44700205 0.48459548 1.3001646
v -0.56383646 0.4171411 1.344609
v 0.12435785 0.9029974 1.3461001
v -0.0009836853 0.8306314 1.3016555
v -0.12632519 0.7582654 1.2749889
v -0.2516667 0.68589944 1.2661
v -0.37700823 0.6135335 1.2749889
v -0.50234973 0.5411675 1.3016555
v -0.62769127 0.46880153 1.3461001
v 0.094515264 0.9742948 1.34
v -0.033656538 0.9002947 1.2955556
v -0.16182828 0.8262947 1.268889
v -0.29000002 0.7522947 1.26
v -0.4181718 0.6782947 1.268889
v -0.5463435 0.6042947 1.2955556
v -0.6745153 0.53029466 1.34
v 0.047691192 1.0357879 1.3261001
v -0.07765034 0.96342194 1.2816556
v -0.20299184 0.89105594 1.2549889
v -0.32833335 0.81869 1.2461001
v -0.45367488 0.74632406 1.2549889
v -0.5790163 0.67395806 1.2816556
v -0.70435786 0.60159206 1.3261001
v -0.016163677 1.0874484 1.3046091
v -0.13299803 1.0199939 1.2601645
v -0.24983236 0.9525396 1.2334979
v -0.3666667 0.88508534 1.224609
v -0.48350108 0.81763095 1.2334979
v -0.60033536 0.7501766 1.2601645
v -0.71716976 0.6827222 1.3046091
v -0.097343445 1.1291063 1.2761397
v -0.19989567 1.0698977 1.2316952
v -0.30244786 1.0106891 1.2050285
v -0.4050001 0.95148057 1.1961397
v -0.50755227 0.892272 1.2050285
v -0.61010444 0.8330635 1.2316952
v -0.7126567 0.7738549 1.2761397
v -0.19703287 1.1600776 1.2416668
v -0.27913305 1.112677 1.1972222
v -0.36123323 1.0652764 1.1705556
v -0.4433334 1.0178759 1.1616668
v -0.52543354 0.97047526 1.1705556
v -0.6075337 0.9230747 1.1972222
v -0.6896339 0.8756741 1.2416668
v -0.31992096 1.1776551 1.2024604
v -0.37383622 1.146527 1.158016
v -0.42775148 1.1153991 1.1313493
v -0.48166674 1.0842712 1.1224604
v -0.535582 1.0531431 1.1313493
v -0.58949727 1.0220151 1.158016
v -0.64341253 0.99088717 1.2024604
v -0.51653594 1.1526663 1.1600001
v -0.51769066 1.1519997 1.1155555
v -0.5188453 1.1513331 1.0888889
v -0.52000004 1.1506664 1.08
v -0.52115476 1.1499996 1.0888889
v -0.5223094 1.149333 1.1155555
v -0.52346414 1.1486664 1.1600001
v -0.12 0.25399998 1.2800001
v -0.12 0.25266665 1.2355556
v -0.12 0.25133333 1.2088889
v -0.12 0.24999999 1.2
v -0.12 0.24866666 1.2088889
v -0.12 0.24733332 1.2355556
v -0.12 0.24599999 1.2800001
v -0.19666667 0.436768 1.3024604
v -0.19666667 0.374512 1.258016
v -0.19666666 0.31225598 1.2313493
v -0.19666666 0.24999999 1.2224604
v -0.19666666 0.18774396 1.2313493
v -0.19666664 0.12548798 1.258016
v -0.19666664 0.06323196 1.3024604
v -0.27333337 0.5344033 1.3216667
v -0.27333337 0.4396022 1.2772223
v -0.27333334 0.3448011 1.2505556
v -0.27333334 0.24999997 1.2416667
v -0.27333334 0.15519884 1.2505556
v -0.2733333 0.060397744 1.2772223
v -0.2733333 -0.034403384 1.3216667
v -0.35000002 0.60525125 1.3361397
v -0.35000002 0.48683414 1.2916952
v -0.35 0.36841705 1.2650285
v -0.35 0.24999997 1.2561396
v -0.35 0.13158286 1.2650286
v -0.34999996 0.013165802 1.2916952
v -0.34999996 -0.10525131 1.3361397
v -0.4266667 0.654726 1.344609
v -0.4266667 0.51981735 1.3001646
v -0.42666668 0.38490865 1.2734979
v -0.42666668 0.24999996 1.264609
v -0.42666668 0.11509125 1.2734979
v -0.42666665 -0.019817412 1.3001646
v -0.42666665 -0.15472612 1.344609
v -0.5033334 0.68419576 1.3461001
v -0.50333333 0.53946376 1.3016555
v -0.50333333 0.39473188 1.2749889
v -0.50333333 0.24999996 1.2661
v -0.50333333 0.10526802 1.2749889
v -0.50333333 -0.039463848 1.3016555
v -0.5033333 -0.18419579 1.3461001
v -0.58000004 0.69399995 1.34
v -0.58 0.5459999 1.2955556
v -0.58 0.39799994 1.268889
v -0.58 0.24999996 1.26
v -0.58 0.10199994 1.268889
v -0.58 -0.046000034 1.2955556
v -0.5799999 -0.19400007 1.34
v -0.65666676 0.6841957 1.3261001
v -0.65666664 0.53946376 1.2816556
v -0.65666664 0.39473185 1.2549889
v -0.65666664 0.24999994 1.2461001
v -0.65666664 0.105268 1.2549889
v -0.65666664 -0.039463878 1.2816556
v -0.65666664 -0.18419582 1.3261001
v -0.73333335 0.654726 1.3046091
v -0.73333335 0.5198173 1.2601645
v -0.73333335 0.38490862 1.2334979
v -0.73333335 0.24999994 1.224609
v -0.73333335 0.115091234 1.2334979
v -0.73333335 -0.019817412 1.2601645
v -0.73333323 -0.15472612 1.3046091
v -0.81000006 0.6052512 1.2761397
v -0.81 0.4868341 1.2316952
v -0.81 0.36841702 1.2050285
v -0.81 0.24999993 1.1961397
v -0.81 0.13158283 1.2050285
v -0.81 0.013165757 1.2316952
v -0.80999994 -0.10525134 1.2761397
v -0.88666666 0.53440326 1.2416668
v -0.88666666 0.43960214 1.1972222
v -0.88666666 0.34480104 1.1705556
v -0.88666666 0.24999993 1.1616668
v -0.88666666 0.1551988 1.1705556
v -0.88666666 0.0603977 1.1972222
v -0.88666666 -0.034403443 1.2416668
v -0.96333337 0.43676788 1.2024604
v -0.96333337 0.3745119 1.158016
v -0.96333337 0.3122559 1.1313493
v -0.96333337 0.24999991 1.1224604
v -0.96333337 0.18774392 1.1313493
v -0.96333337 0.12548795 1.158016
v -0.96333337 0.063231945 1.2024604
v -1.04 0.25399992 1.1600001
v -1.04 0.25266656 1.1155555
v -1.04 0.25133324 1.0888889
v -1.04 0.24999991 1.08
v -1.04 0.24866657 1.0888889
v -1.04 0.24733324 1.1155555
v -1.04 0.2459999 1.1600001
v -0.06346409 0.14807695 1.2800001
v -0.062309388 0.14741027 1.2355556
v -0.061154686 0.14674361 1.2088889
v -0.059999987 0.14607695 1.2
v -0.05884528 0.14541028 1.2088889
v -0.057690587 0.14474362 1.2355556
v -0.056535885 0.14407694 1.2800001
v -0.26007918 0.17306566 1.3024604
v -0.20616388 0.14193766 1.258016
v -0.15224859 0.110809654 1.2313493
v -0.098333314 0.079681665 1.2224604
v -0.04441802 0.048553675 1.2313493
v 0.009497255 0.017425656 1.258016
v 0.06341255 -0.013702333 1.3024604
v -0.38296717 0.15548801 1.3216667
v -0.300867 0.108087465 1.2772223
v -0.21876681 0.060686916 1.2505556
v -0.13666664 0.013286382 1.2416667
v -0.05456645 -0.034114182 1.2505556
v 0.027533712 -0.081514716 1.2772223
v 0.10963391 -0.12891531 1.3216667
v -0.4826566 0.12451671 1.3361397
v -0.38010436 0.06530815 1.2916952
v -0.2775522 0.0060996264 1.2650285
v -0.17499997 -0.0531089 1.2561396
v -0.07244774 -0.11231744 1.2650286
v 0.030104443 -0.17152596 1.2916952
v 0.13265668 -0.23073453 1.3361397
v -0.5638364 0.0828588 1.344609
v -0.447002 0.015404448 1.3001646
v -0.33016765 -0.052049875 1.2734979
v -0.2133333 -0.11950421 1.264609
v -0.09649892 -0.18695855 1.2734979
v 0.020335421 -0.2544129 1.3001646
v 0.1371698 -0.32186723 1.344609
v -0.62769115 0.031198367 1.3461001
v -0.5023496 -0.041167587 1.3016555
v -0.37700814 -0.11353353 1.2749889
v -0.2516666 -0.1858995 1.2661
v -0.12632506 -0.25826544 1.2749889
v -0.000983566 -0.33063138 1.3016555
v 0.12435796 -0.40299731 1.3461001
v -0.67451525 -0.030294776 1.34
v -0.54634345 -0.10429478 1.2955556
v -0.4181717 -0.17829475 1.268889
v -0.28999993 -0.25229472 1.26
v -0.16182815 -0.32629472 1.268889
v -0.03365642 -0.40029466 1.2955556
v 0.09451538 -0.47429466 1.34
v -0.70435786 -0.10159218 1.3261001
v -0.5790163 -0.17395812 1.2816556
v -0.4536748 -0.24632406 1.2549889
v -0.32833326 -0.31869 1.2461001
v -0.20299171 -0.39105594 1.2549889
v -0.07765022 -0.46342194 1.2816556
v 0.047691315 -0.5357878 1.3261001
v -0.71716964 -0.18272233 1.3046091
v -0.6003353 -0.25017667 1.2601645
v -0.48350096 -0.317631 1.2334979
v -0.36666662 -0.38508534 1.224609
v -0.24983224 -0.45253968 1.2334979
v -0.13299792 -0.519994 1.2601645
v -0.016163558 -0.58744836 1.3046091
v -0.7126566 -0.27385503 1.2761397
v -0.6101043 -0.33306354 1.2316952
v -0.50755215 -0.3922721 1.2050285
v -0.40499994 -0.45148063 1.1961397
v -0.3024477 -0.51068914 1.2050285
v -0.19989553 -0.5698977 1.2316952
v -0.097343296 -0.6291062 1.2761397
v -0.6896338 -0.37567425 1.2416668
v -0.6075336 -0.42307484 1.1972222
v -0.5254334 -0.47047538 1.1705556
v -0.44333324 -0.5178759 1.1616668
v -0.36123306 -0.56527644 1.1705556
v -0.2791329 -0.612677 1.1972222
v -0.19703269 -0.6600776 1.2416668
v -0.6434124 -0.49088722 1.2024604
v -0.58949715 -0.5220152 1.158016
v -0.5355819 -0.5531432 1.1313493
v -0.4816666 -0.5842712 1.1224604
v -0.4277513 -0.6153992 1.1313493
v -0.37383604 -0.6465272 1.158016
v -0.31992078 -0.67765516 1.2024604
v -0.52346396 -0.64866644 1.1600001
v -0.52230924 -0.64933306 1.1155555
v -0.5211546 -0.64999974 1.0888889
v -0.51999986 -0.6506664 1.08
v -0.51884514 -0.6513331 1.0888889
v -0.5176905 -0.6519998 1.1155555
v -0.51653576 -0.6526664 1.1600001
v 0.05653594 0.14407697 1.2800001
v 0.057690643 0.14474365 1.2355556
v 0.05884534 0.1454103 1.2088889
v 0.06000004 0.14607698 1.2
v 0.061154746 0.14674366 1.2088889
v 0.062309444 0.1474103 1.2355556
v 0.06346414 0.14807698 1.2800001
v -0.06341242 -0.013702363 1.3024604
v -0.009497143 0.017425656 1.258016
v 0.044418126 0.048553675 1.2313493
v 0.098333396 0.07968171 1.2224604
v 0.15224868 0.11080974 1.2313493
v 0.20616394 0.14193776 1.258016
v 0.2600792 0.17306578 1.3024604
v -0.1096337 -0.12891537 1.3216667
v -0.027533531 -0.081514746 1.2772223
v 0.05456662 -0.034114152 1.2505556
v 0.13666677 0.013286442 1.2416667
v 0.21876694 0.060687035 1.2505556
v 0.30086708 0.10808763 1.2772223
v 0.38296723 0.15548822 1.3216667
v -0.13265644 -0.23073459 1.3361397
v -0.03010425 -0.17152601 1.2916952
v 0.07244793 -0.11231738 1.2650285
v 0.17500012 -0.05310881 1.2561396
v 0.2775523 0.0060997903 1.2650286
v 0.38010448 0.06530836 1.2916952
v 0.48265666 0.124516964 1.3361397
v -0.13716951 -0.3218673 1.344609
v -0.020335168 -0.2544129 1.3001646
v 0.09649916 -0.18695849 1.2734979
v 0.21333349 -0.119504094 1.264609
v 0.33016783 -0.052049696 1.2734979
v 0.44700214 0.015404671 1.3001646
v 0.56383646 0.0828591 1.344609
v -0.12435764 -0.40299737 1.3461001
v 0.0009838939 -0.33063138 1.3016555
v 0.12632537 -0.25826538 1.2749889
v 0.25166684 -0.18589932 1.2661
v 0.37700835 -0.11353332 1.2749889
v 0.5023498 -0.04116732 1.3016555
v 0.6276913 0.03119868 1.3461001
v -0.094514996 -0.47429478 1.34
v 0.033656746 -0.40029466 1.2955556
v 0.16182847 -0.32629466 1.268889
v 0.2900002 -0.2522946 1.26
v 0.41817194 -0.17829454 1.268889
v 0.5463437 -0.10429451 1.2955556
v 0.67451537 -0.030294418 1.34
v -0.047690928 -0.53578794 1.3261001
v 0.07765061 -0.46342188 1.2816556
v 0.20299208 -0.39105588 1.2549889
v 0.32833356 -0.31868988 1.2461001
v 0.45367506 -0.24632382 1.2549889
v 0.5790165 -0.17395788 1.2816556
v 0.70435804 -0.101591855 1.3261001
v 0.016163975 -0.58744836 1.3046091
v 0.13299832 -0.5199939 1.2601645
v 0.24983263 -0.45253956 1.2334979
v 0.36666694 -0.38508517 1.224609
v 0.48350132 -0.31763077 1.2334979
v 0.6003356 -0.25017643 1.2601645
v 0.7171699 -0.18272197 1.3046091
v 0.09734374 -0.6291063 1.2761397
v 0.19989592 -0.5698976 1.2316952
v 0.30244815 -0.510689 1.2050285
v 0.4050003 -0.45148045 1.1961397
v 0.5075525 -0.39227188 1.2050285
v 0.6101047 -0.3330633 1.2316952
v 0.71265686 -0.27385467 1.2761397
v 0.19703318 -0.66007745 1.2416668
v 0.27913335 -0.61267686 1.1972222
v 0.3612335 -0.56527627 1.1705556
v 0.44333366 -0.5178757 1.1616668
v 0.52543384 -0.47047508 1.1705556
v 0.60753393 -0.42307448 1.1972222
v 0.6896342 -0.3756739 1.2416668
v 0.31992126 -0.677655 1.2024604
v 0.37383652 -0.64652693 1.158016
v 0.42775178 -0.61539894 1.1313493
v 0.48166704 -0.58427095 1.1224604
v 0.5355823 -0.5531429 1.1313493
v 0.58949757 -0.5220149 1.158016
v 0.6434128 -0.49088693 1.2024604
v 0.51653624 -0.65266615 1.1600001
v 0.51769096 -0.65199953 1.1155555
v 0.5188456 -0.65133286 1.0888889
v 0.52000034 -0.6506662 1.08
v 0.52115506 -0.6499995 1.0888889
v 0.5223097 -0.6493328 1.1155555
v 0.52346444 -0.6486662 1.1600001
v 0.15825 0.25 1.215
v 0.14871673 0.26957893 1.215
v 0.13691999 0.2866876 1.215
v 0.13858193 0.30740252 1.215
v 0.13704851 0.329125 1.215
v 0.119003005 0.34131423 1.215
v 0.100232385 0.3502324 1.215
v 0.09131422 0.369003 1.215
v 0.079124995 0.38704854 1.215
v 0.05740252 0.38858193 1.215
v 0.036687605 0.38691998 1.215
v 0.01957892 0.39871675 1.215
v -6.917327E-09 0.40825 1.215
v -0.019578949 0.39871672 1.215
v -0.0366876 0.38691998 1.215
v -0.057402536 0.38858193 1.215
v -0.07912501 0.3870485 1.215
v -0.09131422 0.369003 1.215
v -0.100232385 0.3502324 1.215
v -0.11900304 0.3413142 1.215
v -0.13704851 0.32912502 1.215
v -0.13858193 0.3074025 1.215
v -0.13692 0.28668758 1.215
v -0.14871676 0.26957893 1.215
v -0.15825 0.24999999 1.215
v -0.14871672 0.23042107 1.215
v -0.13691998 0.21331236 1.215
v -0.13858192 0.1925975 1.215
v -0.13704851 0.17087501 1.215
v -0.11900297 0.15868577 1.215
v -0.10023238 0.14976759 1.215
v -0.09131423 0.13099702 1.215
v -0.07912499 0.11295147 1.215
v -0.05740246 0.11141805 1.215
v -0.03668759 0.113079995 1.215
v -0.019578895 0.10128324 1.215
v 1.8871122E-09 0.091749996 1.215
v 0.019578956 0.1012833 1.215
v 0.036687657 0.113080025 1.215
v 0.05740255 0.11141807 1.215
v 0.07912499 0.11295147 1.215
v 0.09131424 0.13099702 1.215
v 0.10023242 0.14976765 1.215
v 0.11900301 0.15868579 1.215
v 0.13704854 0.17087504 1.215
v 0.13858193 0.1925975 1.215
v 0.13692 0.21331243 1.215
v 0.14871678 0.23042113 1.215
v 0.15825 0.25000003 1.215
v 0.211 0.25 1.32
v 0.19828898 0.27610523 1.32
v 0.18255997 0.29891682 1.32
v 0.1847759 0.3265367 1.32
v 0.18273133 0.35549998 1.32
v 0.15867066 0.3717523 1.32
v 0.13364318 0.38364318 1.32
v 0.121752284 0.40867066 1.32
v 0.10549999 0.43273136 1.32
v 0.076536685 0.4347759 1.32
v 0.048916806 0.43255997 1.32
v 0.026105229 0.448289 1.32
v -9.223103E-09 0.461 1.32
v -0.026105266 0.44828895 1.32
v -0.0489168 0.43255997 1.32
v -0.076536715 0.43477592 1.32
v -0.10550001 0.43273133 1.32
v -0.121752284 0.40867066 1.32
v -0.13364318 0.38364318 1.32
v -0.15867072 0.37175226 1.32
v -0.18273133 0.3555 1.32
v -0.18477592 0.32653666 1.32
v -0.18256 0.2989168 1.32
v -0.19828902 0.27610523 1.32
v -0.211 0.24999999 1.32
v -0.19828895 0.22389475 1.32
v -0.18255997 0.20108315 1.32
v -0.18477589 0.17346331 1.32
v -0.18273133 0.14450002 1.32
v -0.15867062 0.12824771 1.32
v -0.13364317 0.116356805 1.32
v -0.1217523 0.09132935 1.32
v -0.10549998 0.06726864 1.32
v -0.07653662 0.06522408 1.32
v -0.04891679 0.06744 1.32
v -0.02610519 0.05171098 1.32
v 2.5161497E-09 0.039000005 1.32
v 0.026105277 0.051711082 1.32
v 0.048916876 0.06744005 1.32
v 0.07653673 0.065224096 1.32
v 0.10549998 0.06726864 1.32
v 0.121752314 0.09132935 1.32
v 0.13364322 0.116356865 1.32
v 0.15867068 0.12824772 1.32
v 0.18273139 0.14450005 1.32
v 0.1847759 0.17346331 1.32
v 0.18256 0.20108324 1.32
v 0.19828904 0.22389485 1.32
v 0.211 0.25000003 1.32
v 0.27429998 0.25 1.5
v 0.25777566 0.2839368 1.5
v 0.23732796 0.31359184 1.5
v 0.24020866 0.3494977 1.5
v 0.23755074 0.38715 1.5
v 0.20627186 0.40827796 1.5
v 0.17373613 0.42373613 1.5
v 0.15827796 0.45627186 1.5
v 0.13714997 0.48755077 1.5
v 0.09949769 0.49020866 1.5
v 0.063591845 0.48732796 1.5
v 0.033936795 0.50777566 1.5
v -1.1990033E-08 0.5243 1.5
v -0.033936843 0.5077756 1.5
v -0.06359184 0.48732796 1.5
v -0.09949773 0.4902087 1.5
v -0.13715 0.48755074 1.5
v -0.15827796 0.45627186 1.5
v -0.17373613 0.42373613 1.5
v -0.20627192 0.40827793 1.5
v -0.23755074 0.38715 1.5
v -0.24020867 0.34949762 1.5
v -0.23732796 0.3135918 1.5
v -0.25777572 0.2839368 1.5
v -0.27429998 0.24999997 1.5
v -0.2577756 0.21606317 1.5
v -0.23732795 0.1864081 1.5
v -0.24020863 0.15050232 1.5
v -0.23755074 0.112850025 1.5
v -0.2062718 0.09172201 1.5
v -0.1737361 0.076263845 1.5
v -0.15827799 0.043728158 1.5
v -0.13714996 0.012449235 1.5
v -0.099497594 0.009791315 1.5
v -0.06359182 0.012672037 1.5
v -0.033936746 -0.007775724 1.5
v 3.2709944E-09 -0.02429998 1.5
v 0.03393686 -0.007775575 1.5
v 0.063591935 0.012672052 1.5
v 0.09949775 0.0097913295 1.5
v 0.13714996 0.012449235 1.5
v 0.158278 0.043728158 1.5
v 0.17373618 0.076263934 1.5
v 0.20627189 0.091722056 1.5
v 0.23755078 0.11285007 1.5
v 0.24020864 0.15050232 1.5
v 0.23732796 0.18640822 1.5
v 0.25777572 0.21606329 1.5
v 0.27429998 0.25000006 1.5
v 0.3165 0.25 1.635
v 0.29743347 0.28915787 1.61
v 0.27383998 0.3233752 1.585
v 0.27716386 0.36480504 1.61
v 0.27409703 0.40825 1.635
v 0.23800601 0.43262845 1.61
v 0.20046477 0.4504648 1.585
v 0.18262844 0.488006 1.61
v 0.15824999 0.5240971 1.635
v 0.11480504 0.52716386 1.61
v 0.07337521 0.52383995 1.585
v 0.03915784 0.5474335 1.6100001
v -1.3834654E-08 0.5665 1.635
v -0.039157897 0.54743344 1.61
v -0.0733752 0.52383995 1.585
v -0.11480507 0.52716386 1.6100001
v -0.15825002 0.524097 1.635
v -0.18262844 0.488006 1.61
v -0.20046477 0.4504648 1.585
v -0.23800609 0.4326284 1.6100001
v -0.27409703 0.40825003 1.635
v -0.27716386 0.36480498 1.61
v -0.27384 0.32337517 1.585
v -0.29743353 0.28915784 1.6100001
v -0.3165 0.24999997 1.635
v -0.29743344 0.21084213 1.61
v -0.27383995 0.17662472 1.585
v -0.27716383 0.13519499 1.61
v -0.27409703 0.09175001 1.635
v -0.23800594 0.06737155 1.6099999
v -0.20046476 0.049535185 1.585
v -0.18262845 0.011994034 1.6100001
v -0.15824997 -0.024097055 1.635
v -0.11480492 -0.027163893 1.61
v -0.07337518 -0.02384001 1.585
v -0.03915779 -0.047433525 1.6100001
v 3.7742245E-09 -0.06650001 1.635
v 0.039157912 -0.047433406 1.6099999
v 0.073375314 -0.02383995 1.585
v 0.1148051 -0.027163863 1.6100001
v 0.15824997 -0.024097055 1.635
v 0.18262848 0.011994034 1.61
v 0.20046484 0.049535304 1.585
v 0.23800603 0.06737158 1.6100001
v 0.27409708 0.091750085 1.635
v 0.27716386 0.13519499 1.61
v 0.27384 0.17662486 1.585
v 0.29743356 0.21084227 1.6100001
v 0.3165 0.25000006 1.635
v 0.27957496 0.25 1.57
v 0.2627329 0.28458944 1.57
v 0.24189197 0.31481475 1.57
v 0.24482806 0.3514111 1.57
v 0.24211903 0.3897875 1.57
v 0.2102386 0.41132176 1.57
v 0.1770772 0.4270772 1.57
v 0.16132176 0.4602386 1.57
v 0.13978747 0.49211904 1.57
v 0.101411104 0.49482805 1.57
v 0.06481476 0.49189198 1.57
v 0.034589425 0.5127329 1.57
v -1.222061E-08 0.529575 1.57
v -0.034589473 0.51273286 1.57
v -0.064814754 0.49189198 1.57
v -0.10141114 0.4948281 1.57
v -0.1397875 0.492119 1.57
v -0.16132176 0.4602386 1.57
v -0.1770772 0.4270772 1.57
v -0.2102387 0.41132176 1.57
v -0.24211903 0.3897875 1.57
v -0.24482806 0.35141104 1.57
v -0.24189197 0.31481472 1.57
v -0.26273295 0.2845894 1.57
v -0.27957496 0.24999997 1.57
v -0.26273283 0.21541055 1.57
v -0.24189192 0.18518516 1.57
v -0.24482803 0.14858891 1.57
v -0.24211903 0.110212535 1.57
v -0.21023855 0.08867821 1.57
v -0.17707717 0.07292278 1.57
v -0.16132179 0.039761394 1.57
v -0.13978745 0.007880956 1.57
v -0.10141101 0.005171925 1.57
v -0.06481474 0.008108035 1.57
v -0.034589373 -0.012732953 1.57
v 3.3338985E-09 -0.02957496 1.57
v 0.034589488 -0.012732804 1.57
v 0.06481486 0.008108079 1.57
v 0.101411164 0.005171925 1.57
v 0.13978745 0.007880956 1.57
v 0.1613218 0.039761394 1.57
v 0.17707726 0.072922856 1.57
v 0.21023864 0.08867824 1.57
v 0.24211907 0.11021258 1.57
v 0.24482805 0.14858891 1.57
v 0.24189197 0.1851853 1.57
v 0.26273295 0.21541066 1.57
v 0.27957496 0.25000006 1.57
v 0.20045 0.25 1.3000001
v 0.18837452 0.27479997 1.3000001
v 0.17343198 0.29647097 1.3000001
v 0.17553711 0.32270986 1.3000001
v 0.17359477 0.350225 1.3000001
v 0.15073712 0.36566466 1.3000001
v 0.12696102 0.37696102 1.3000001
v 0.11566467 0.4007371 1.3000001
v 0.10022499 0.42359477 1.3000001
v 0.07270985 0.4255371 1.3000001
v 0.046470962 0.423432 1.3000001
v 0.024799967 0.43837455 1.3000001
v -8.761948E-09 0.45045 1.3000001
v -0.0248 0.43837452 1.3000001
v -0.04647096 0.423432 1.3000001
v -0.07270987 0.4255371 1.3000001
v -0.10022501 0.42359477 1.3000001
v -0.11566467 0.4007371 1.3000001
v -0.12696102 0.37696102 1.3000001
v -0.15073718 0.36566466 1.3000001
v -0.17359477 0.350225 1.3000001
v -0.17553711 0.3227098 1.3000001
v -0.17343199 0.29647094 1.3000001
v -0.18837456 0.27479997 1.3000001
v -0.20045 0.24999999 1.3000001
v -0.1883745 0.22520001 1.3000001
v -0.17343196 0.203529 1.3000001
v -0.1755371 0.17729016 1.3000001
v -0.17359477 0.14977501 1.3000001
v -0.15073708 0.13433531 1.3000001
v -0.126961 0.12303896 1.3000001
v -0.11566468 0.09926288 1.3000001
v -0.10022498 0.07640521 1.3000001
v -0.072709784 0.074462876 1.3000001
v -0.046470948 0.07656801 1.3000001
v -0.024799932 0.061625436 1.3000001
v 2.3903424E-09 0.049549997 1.3000001
v 0.024800012 0.061625525 1.3000001
v 0.046471033 0.07656807 1.3000001
v 0.07270989 0.07446289 1.3000001
v 0.10022498 0.07640521 1.3000001
v 0.11566469 0.09926288 1.3000001
v 0.12696107 0.12303902 1.3000001
v 0.15073714 0.13433534 1.3000001
v 0.1735948 0.14977506 1.3000001
v 0.1755371 0.17729016 1.3000001
v 0.17343199 0.20352907 1.3000001
v 0.18837458 0.2252001 1.3000001
v 0.20045 0.25000003 1.3000001
v 0 0.25 1.36
v 0.15 0.25 1.26
v 0.14488888 0.28882286 1.26
v 0.12990381 0.325 1.26
v 0.10606602 0.35606602 1.26
v 0.074999996 0.37990382 1.26
v 0.038822863 0.39488888 1.26
v -6.5567085E-09 0.4 1.26
v -0.03882286 0.39488888 1.26
v -0.07500001 0.3799038 1.26
v -0.10606602 0.35606602 1.26
v -0.12990381 0.32500002 1.26
v -0.1448889 0.28882283 1.26
v -0.15 0.24999999 1.26
v -0.14488886 0.21117711 1.26
v -0.12990381 0.17500001 1.26
v -0.106066 0.14393395 1.26
v -0.07499999 0.12009618 1.26
v -0.03882285 0.10511111 1.26
v 1.7887322E-09 0.099999994 1.26
v 0.03882292 0.10511114 1.26
v 0.07499999 0.12009618 1.26
v 0.106066056 0.14393401 1.26
v 0.12990384 0.17500004 1.26
v 0.1448889 0.21117717 1.26
v 0.15 0.25000003 1.26
vt 0 0
vt 0.125 0
vt 0.25 0
vt 0.375 0
vt 0.5 0
vt 0.625 0
vt 0.75 0
vt 0.875 0
vt 1 0
vt 0 0.14285715
vt 0.125 0.14285715
vt 0.25 0.14285715
vt 0.375 0.14285715
vt 0.5 0.14285715
vt 0.625 0.14285715
vt 0.75 0.14285715
vt 0.875 0.14285715
vt 1 0.14285715
vt 0 0.2857143
vt 0.125 0.2857143
vt 0.25 0.2857143
vt 0.375 0.2857143
vt 0.5 0.2857143
vt 0.625 0.2857143
vt 0.75 0.2857143
vt 0.875 0.2857143
vt 1 0.2857143
vt 0 0.42857143
vt 0.125 0.42857143
vt 0.25 0.42857143
vt 0.375 0.42857143
vt 0.5 0.42857143
vt 0.625 0.42857143
vt 0.75 0.42857143
vt 0.875 0.42857143
vt 1 0.42857143
vt 0 0.5714286
vt 0.125 0.5714286
vt 0.25 0.5714286
vt 0.375 0.5714286
vt 0.5 0.5714286
vt 0.625 0.5714286
vt 0.75 0.5714286
vt 0.875 0.5714286
vt 1 0.5714286
vt 0 0.71428573
vt 0.125 0.71428573
vt 0.25 0.71428573
vt 0.375 0.71428573
vt 0.5 0.71428573
vt 0.625 0.71428573
vt 0.75 0.71428573
vt 0.875 0.71428573
vt 1 0.71428573
vt 0 0.85714287
vt 0.125 0.85714287
vt 0.25 0.85714287
vt 0.375 0.85714287
vt 0.5 0.85714287
vt 0.625 0.85714287
vt 0.75 0.85714287
vt 0.875 0.85714287
vt 1 0.85714287
vt 0 1
vt 0.125 1
vt 0.25 1
vt 0.375 1
vt 0.5 1
vt 0.625 1
vt 0.75 1
vt 0.875 1
vt 1 1
vt 0 0
vt 0 0.5
vt 0 1
vt 0.125 0
vt 0.125 0.5
vt 0.125 1
vt 0.25 0
vt 0.25 0.5
vt 0.25 1
vt 0.375 0
vt 0.375 0.5
vt 0.375 1
vt 0.5 0
vt 0.5 0.5
vt 0.5 1
vt 0.625 0
vt 0.625 0.5
vt 0.625 1
vt 0.75 0
vt 0.75 0.5
vt 0.75 1
vt 0.875 0
vt 0.875 0.5
vt 0.875 1
vt 1 0
vt 1 0.5
vt 1 1
vt 0 0
vt 0 0.5
vt 0 1
vt 0.125 0
vt 0.125 0.5
vt 0.125 1
vt 0.25 0
vt 0.25 0.5
vt 0.25 1
vt 0.375 0
vt 0.375 0.5
vt 0.375 1
vt 0.5 0
vt 0.5 0.5
vt 0.5 1
vt 0.625 0
vt 0.625 0.5
vt 0.625 1
vt 0.75 0
vt 0.75 0.5
vt 0.75 1
vt 0.875 0
vt 0.875 0.5
vt 0.875 1
vt 1 0
vt 1 0.5
vt 1 1
vt 0 0
vt 0 0.16666669
vt 0 0.33333334
vt 0 0.5
vt 0 0.6666667
vt 0 0.8333333
vt 0 1
vt 0.083333336 0
vt 0.083333336 0.16666669
vt 0.083333336 0.33333334
vt 0.083333336 0.5
vt 0.083333336 0.6666667
vt 0.083333336 0.8333333
vt 0.083333336 1
vt 0.16666667 0
vt 0.16666667 0.16666669
vt 0.16666667 0.33333334
vt 0.16666667 0.5
vt 0.16666667 0.6666667
vt 0.16666667 0.8333333
vt 0.16666667 1
vt 0.25 0
vt 0.25 0.16666669
vt 0.25 0.33333334
vt 0.25 0.5
vt 0.25 0.6666667
vt 0.25 0.8333333
vt 0.25 1
vt 0.33333334 0
vt 0.33333334 0.16666669
vt 0.33333334 0.33333334
vt 0.33333334 0.5
vt 0.33333334 0.6666667
vt 0.33333334 0.8333333
vt 0.33333334 1
vt 0.41666666 0
vt 0.41666666 0.16666669
vt 0.41666666 0.33333334
vt 0.41666666 0.5
vt 0.41666666 0.6666667
vt 0.41666666 0.8333333
vt 0.41666666 1
vt 0.5 0
vt 0.5 0.16666669
vt 0.5 0.33333334
vt 0.5 0.5
vt 0.5 0.6666667
vt 0.5 0.8333333
vt 0.5 1
vt 0.5833333 0
vt 0.5833333 0.16666669
vt 0.5833333 0.33333334
vt 0.5833333 0.5
vt 0.5833333 0.6666667
vt 0.5833333 0.8333333
vt 0.5833333 1
vt 0.6666667 0
vt 0.6666667 0.16666669
vt 0.6666667 0.33333334
vt 0.6666667 0.5
vt 0.6666667 0.6666667
vt 0.6666667 0.8333333
vt 0.6666667 1
vt 0.75 0
vt 0.75 0.16666669
vt 0.75 0.33333334
vt 0.75 0.5
vt 0.75 0.6666667
vt 0.75 0.8333333
vt 0.75 1
vt 0.8333333 0
vt 0.8333333 0.16666669
vt 0.8333333 0.33333334
vt 0.8333333 0.5
vt 0.8333333 0.6666667
vt 0.8333333 0.8333333
vt 0.8333333 1
vt 0.9166667 0
vt 0.9166667 0.16666669
vt 0.9166667 0.33333334
vt 0.9166667 0.5
vt 0.9166667 0.6666667
vt 0.9166667 0.8333333
vt 0.9166667 1
vt 1 0
vt 1 0.16666669
vt 1 0.33333334
vt 1 0.5
vt 1 0.6666667
vt 1 0.8333333
vt 1 1
vt 0 0
vt 0 0.16666669
vt 0 0.33333334
vt 0 0.5
vt 0 0.6666667
vt 0 0.8333333
vt 0 1
vt 0.083333336 0
vt 0.083333336 0.16666669
vt 0.083333336 0.33333334
vt 0.083333336 0.5
vt 0.083333336 0.6666667
vt 0.083333336 0.8333333
vt 0.083333336 1
vt 0.16666667 0
vt 0.16666667 0.16666669
vt 0.16666667 0.33333334
vt 0.16666667 0.5
vt 0.16666667 0.6666667
vt 0.16666667 0.8333333
vt 0.16666667 1
vt 0.25 0
vt 0.25 0.16666669
vt 0.25 0.33333334
vt 0.25 0.5
vt 0.25 0.6666667
vt 0.25 0.8333333
vt 0.25 1
vt 0.33333334 0
vt 0.33333334 0.16666669
vt 0.33333334 0.33333334
vt 0.33333334 0.5
vt 0.33333334 0.6666667
vt 0.33333334 0.8333333
vt 0.33333334 1
vt 0.41666666 0
vt 0.41666666 0.16666669
vt 0.41666666 0.33333334
vt 0.41666666 0.5
vt 0.41666666 0.6666667
vt 0.41666666 0.8333333
vt 0.41666666 1
vt 0.5 0
vt 0.5 0.16666669
vt 0.5 0.33333334
vt 0.5 0.5
vt 0.5 0.6666667
vt 0.5 0.8333333
vt 0.5 1
vt 0.5833333 0
vt 0.5833333 0.16666669
vt 0.5833333 0.33333334
vt 0.5833333 0.5
vt 0.5833333 0.6666667
vt 0.5833333 0.8333333
vt 0.5833333 1
vt 0.6666667 0
vt 0.6666667 0.16666669
vt 0.6666667 0.33333334
vt 0.6666667 0.5
vt 0.6666667 0.6666667
vt 0.6666667 0.8333333
vt 0.6666667 1
vt 0.75 0
vt 0.75 0.16666669
vt 0.75 0.33333334
vt 0.75 0.5
vt 0.75 0.6666667
vt 0.75 0.8333333
vt 0.75 1
vt 0.8333333 0
vt 0.8333333 0.16666669
vt 0.8333333 0.33333334
vt 0.8333333 0.5
vt 0.8333333 0.6666667
vt 0.8333333 0.8333333
vt 0.8333333 1
vt 0.9166667 0
vt 0.9166667 0.16666669
vt 0.9166667 0.33333334
vt 0.9166667 0.5
vt 0.9166667 0.6666667
vt 0.9166667 0.8333333
vt 0.9166667 1
vt 1 0
vt 1 0.16666669
vt 1 0.33333334
vt 1 0.5
vt 1 0.6666667
vt 1 0.8333333
vt 1 1
vt 0 0
vt 0 0.16666669
vt 0 0.33333334
vt 0 0.5
vt 0 0.6666667
vt 0 0.8333333
vt 0 1
vt 0.083333336 0
vt 0.083333336 0.16666669
vt 0.083333336 0.33333334
vt 0.083333336 0.5
vt 0.083333336 0.6666667
vt 0.083333336 0.8333333
vt 0.083333336 1
vt 0.16666667 0
vt 0.16666667 0.16666669
vt 0.16666667 0.33333334
vt 0.16666667 0.5
vt 0.16666667 0.6666667
vt 0.16666667 0.8333333
vt 0.16666667 1
vt 0.25 0
vt 0.25 0.16666669
vt 0.25 0.33333334
vt 0.25 0.5
vt 0.25 0.6666667
vt 0.25 0.8333333
vt 0.25 1
vt 0.33333334 0
vt 0.33333334 0.16666669
vt 0.33333334 0.33333334
vt 0.33333334 0.5
vt 0.33333334 0.6666667
vt 0.33333334 0.8333333
vt 0.33333334 1
vt 0.41666666 0
vt 0.41666666 0.16666669
vt 0.41666666 0.33333334
vt 0.41666666 0.5
vt 0.41666666 0.6666667
vt 0.41666666 0.8333333
vt 0.41666666 1
vt 0.5 0
vt 0.5 0.16666669
vt 0.5 0.33333334
vt 0.5 0.5
vt 0.5 0.6666667
vt 0.5 0.8333333
vt 0.5 1
vt 0.5833333 0
vt 0.5833333 0.16666669
vt 0.5833333 0.33333334
vt 0.5833333 0.5
vt 0.5833333 0.6666667
vt 0.5833333 0.8333333
vt 0.5833333 1
vt 0.6666667 0
vt 0.6666667 0.16666669
vt 0.6666667 0.33333334
vt 0.6666667 0.5
vt 0.6666667 0.6666667
vt 0.6666667 0.8333333
vt 0.6666667 1
vt 0.75 0
vt 0.75 0.16666669
vt 0.75 0.33333334
vt 0.75 0.5
vt 0.75 0.6666667
vt 0.75 0.8333333
vt 0.75 1
vt 0.8333333 0
vt 0.8333333 0.16666669
vt 0.8333333 0.33333334
vt 0.8333333 0.5
vt 0.8333333 0.6666667
vt 0.8333333 0.8333333
vt 0.8333333 1
vt 0.9166667 0
vt 0.9166667 0.16666669
vt 0.9166667 0.33333334
vt 0.9166667 0.5
vt 0.9166667 0.6666667
vt 0.9166667 0.8333333
vt 0.9166667 1
vt 1 0
vt 1 0.16666669
vt 1 0.33333334
vt 1 0.5
vt 1 0.6666667
vt 1 0.8333333
vt 1 1
vt 0 0
vt 0 0.16666669
vt 0 0.33333334
vt 0 0.5
vt 0 0.6666667
vt 0 0.8333333
vt 0 1
vt 0.083333336 0
vt 0.083333336 0.16666669
vt 0.083333336 0.33333334
vt 0.083333336 0.5
vt 0.083333336 0.6666667
vt 0.083333336 0.8333333
vt 0.083333336 1
vt 0.16666667 0
vt 0.16666667 0.16666669
vt 0.16666667 0.33333334
vt 0.16666667 0.5
vt 0.16666667 0.6666667
vt 0.16666667 0.8333333
vt 0.16666667 1
vt 0.25 0
vt 0.25 0.16666669
vt 0.25 0.33333334
vt 0.25 0.5
vt 0.25 0.6666667
vt 0.25 0.8333333
vt 0.25 1
vt 0.33333334 0
vt 0.33333334 0.16666669
vt 0.33333334 0.33333334
vt 0.33333334 0.5
vt 0.33333334 0.6666667
vt 0.33333334 0.8333333
vt 0.33333334 1
vt 0.41666666 0
vt 0.41666666 0.16666669
vt 0.41666666 0.33333334
vt 0.41666666 0.5
vt 0.41666666 0.6666667
vt 0.41666666 0.8333333
vt 0.41666666 1
vt 0.5 0
vt 0.5 0.16666669
vt 0.5 0.33333334
vt 0.5 0.5
vt 0.5 0.6666667
vt 0.5 0.8333333
vt 0.5 1
vt 0.5833333 0
vt 0.5833333 0.16666669
vt 0.5833333 0.33333334
vt 0.5833333 0.5
vt 0.5833333 0.6666667
vt 0.5833333 0.8333333
vt 0.5833333 1
vt 0.6666667 0
vt 0.6666667 0.16666669
vt 0.6666667 0.33333334
vt 0.6666667 0.5
vt 0.6666667 0.6666667
vt 0.6666667 0.8333333
vt 0.6666667 1
vt 0.75 0
vt 0.75 0.16666669
vt 0.75 0.33333334
vt 0.75 0.5
vt 0.75 0.6666667
vt 0.75 0.8333333
vt 0.75 1
vt 0.8333333 0
vt 0.8333333 0.16666669
vt 0.8333333 0.33333334
vt 0.8333333 0.5
vt 0.8333333 0.6666667
vt 0.8333333 0.8333333
vt 0.8333333 1
vt 0.9166667 0
vt 0.9166667 0.16666669
vt 0.9166667 0.33333334
vt 0.9166667 0.5
vt 0.9166667 0.6666667
vt 0.9166667 0.8333333
vt 0.9166667 1
vt 1 0
vt 1 0.16666669
vt 1 0.33333334
vt 1 0.5
vt 1 0.6666667
vt 1 0.8333333
vt 1 1
vt 0 0
vt 0 0.16666669
vt 0 0.33333334
vt 0 0.5
vt 0 0.6666667
vt 0 0.8333333
vt 0 1
vt 0.083333336 0
vt 0.083333336 0.16666669
vt 0.083333336 0.33333334
vt 0.083333336 0.5
vt 0.083333336 0.6666667
vt 0.083333336 0.8333333
vt 0.083333336 1
vt 0.16666667 0
vt 0.16666667 0.16666669
vt 0.16666667 0.33333334
vt 0.16666667 0.5
vt 0.16666667 0.6666667
vt 0.16666667 0.8333333
vt 0.16666667 1
vt 0.25 0
vt 0.25 0.16666669
vt 0.25 0.33333334
vt 0.25 0.5
vt 0.25 0.6666667
vt 0.25 0.8333333
vt 0.25 1
vt 0.33333334 0
vt 0.33333334 0.16666669
vt 0.33333334 0.33333334
vt 0.33333334 0.5
vt 0.33333334 0.6666667
vt 0.33333334 0.8333333
vt 0.33333334 1
vt 0.41666666 0
vt 0.41666666 0.16666669
vt 0.41666666 0.33333334
vt 0.41666666 0.5
vt 0.41666666 0.6666667
vt 0.41666666 0.8333333
vt 0.41666666 1
vt 0.5 0
vt 0.5 0.16666669
vt 0.5 0.33333334
vt 0.5 0.5
vt 0.5 0.6666667
vt 0.5 0.8333333
vt 0.5 1
vt 0.5833333 0
vt 0.5833333 0.16666669
vt 0.5833333 0.33333334
vt 0.5833333 0.5
vt 0.5833333 0.6666667
vt 0.5833333 0.8333333
vt 0.5833333 1
vt 0.6666667 0
vt 0.6666667 0.16666669
vt 0.6666667 0.33333334
vt 0.6666667 0.5
vt 0.6666667 0.6666667
vt 0.6666667 0.8333333
vt 0.6666667 1
vt 0.75 0
vt 0.75 0.16666669
vt 0.75 0.33333334
vt 0.75 0.5
vt 0.75 0.6666667
vt 0.75 0.8333333
vt 0.75 1
vt 0.8333333 0
vt 0.8333333 0.16666669
vt 0.8333333 0.33333334
vt 0.8333333 0.5
vt 0.8333333 0.6666667
vt 0.8333333 0.8333333
vt 0.8333333 1
vt 0.9166667 0
vt 0.9166667 0.16666669
vt 0.9166667 0.33333334
vt 0.9166667 0.5
vt 0.9166667 0.6666667
vt 0.9166667 0.8333333
vt 0.9166667 1
vt 1 0
vt 1 0.16666669
vt 1 0.33333334
vt 1 0.5
vt 1 0.6666667
vt 1 0.8333333
vt 1 1
vt 0 0
vt 0 0.16666669
vt 0 0.33333334
vt 0 0.5
vt 0 0.6666667
vt 0 0.8333333
vt 0 1
vt 0.083333336 0
vt 0.083333336 0.16666669
vt 0.083333336 0.33333334
vt 0.083333336 0.5
vt 0.083333336 0.6666667
vt 0.083333336 0.8333333
vt 0.083333336 1
vt 0.16666667 0
vt 0.16666667 0.16666669
vt 0.16666667 0.33333334
vt 0.16666667 0.5
vt 0.16666667 0.6666667
vt 0.16666667 0.8333333
vt 0.16666667 1
vt 0.25 0
vt 0.25 0.16666669
vt 0.25 0.33333334
vt 0.25 0.5
vt 0.25 0.6666667
vt 0.25 0.8333333
vt 0.25 1
vt 0.33333334 0
vt 0.33333334 0.16666669
vt 0.33333334 0.33333334
vt 0.33333334 0.5
vt 0.33333334 0.6666667
vt 0.33333334 0.8333333
vt 0.33333334 1
vt 0.41666666 0
vt 0.41666666 0.16666669
vt 0.41666666 0.33333334
vt 0.41666666 0.5
vt 0.41666666 0.6666667
vt 0.41666666 0.8333333
vt 0.41666666 1
vt 0.5 0
vt 0.5 0.16666669
vt 0.5 0.33333334
vt 0.5 0.5
vt 0.5 0.6666667
vt 0.5 0.8333333
vt 0.5 1
vt 0.5833333 0
vt 0.5833333 0.16666669
vt 0.5833333 0.33333334
vt 0.5833333 0.5
vt 0.5833333 0.6666667
vt 0.5833333 0.8333333
vt 0.5833333 1
vt 0.6666667 0
vt 0.6666667 0.16666669
vt 0.6666667 0.33333334
vt 0.6666667 0.5
vt 0.6666667 0.6666667
vt 0.6666667 0.8333333
vt 0.6666667 1
vt 0.75 0
vt 0.75 0.16666669
vt 0.75 0.33333334
vt 0.75 0.5
vt 0.75 0.6666667
vt 0.75 0.8333333
vt 0.75 1
vt 0.8333333 0
vt 0.8333333 0.16666669
vt 0.8333333 0.33333334
vt 0.8333333 0.5
vt 0.8333333 0.6666667
vt 0.8333333 0.8333333
vt 0.8333333 1
vt 0.9166667 0
vt 0.9166667 0.16666669
vt 0.9166667 0.33333334
vt 0.9166667 0.5
vt 0.9166667 0.6666667
vt 0.9166667 0.8333333
vt 0.9166667 1
vt 1 0
vt 1 0.16666669
vt 1 0.33333334
vt 1 0.5
vt 1 0.6666667
vt 1 0.8333333
vt 1 1
vt 0 0
vt 0.020833334 0
vt 0.041666668 0
vt 0.0625 0
vt 0.083333336 0
vt 0.104166664 0
vt 0.125 0
vt 0.14583333 0
vt 0.16666667 0
vt 0.1875 0
vt 0.20833333 0
vt 0.22916667 0
vt 0.25 0
vt 0.27083334 0
vt 0.29166666 0
vt 0.3125 0
vt 0.33333334 0
vt 0.35416666 0
vt 0.375 0
vt 0.39583334 0
vt 0.41666666 0
vt 0.4375 0
vt 0.45833334 0
vt 0.47916666 0
vt 0.5 0
vt 0.5208333 0
vt 0.5416667 0
vt 0.5625 0
vt 0.5833333 0
vt 0.6041667 0
vt 0.625 0
vt 0.6458333 0
vt 0.6666667 0
vt 0.6875 0
vt 0.7083333 0
vt 0.7291667 0
vt 0.75 0
vt 0.7708333 0
vt 0.7916667 0
vt 0.8125 0
vt 0.8333333 0
vt 0.8541667 0
vt 0.875 0
vt 0.8958333 0
vt 0.9166667 0
vt 0.9375 0
vt 0.9583333 0
vt 0.9791667 0
vt 1 0
vt 0 0.2
vt 0.020833334 0.2
vt 0.041666668 0.2
vt 0.0625 0.2
vt 0.083333336 0.2
vt 0.104166664 0.2
vt 0.125 0.2
vt 0.14583333 0.2
vt 0.16666667 0.2
vt 0.1875 0.2
vt 0.20833333 0.2
vt 0.22916667 0.2
vt 0.25 0.2
vt 0.27083334 0.2
vt 0.29166666 0.2
vt 0.3125 0.2
vt 0.33333334 0.2
vt 0.35416666 0.2
vt 0.375 0.2
vt 0.39583334 0.2
vt 0.41666666 0.2
vt 0.4375 0.2
vt 0.45833334 0.2
vt 0.47916666 0.2
vt 0.5 0.2
vt 0.5208333 0.2
vt 0.5416667 0.2
vt 0.5625 0.2
vt 0.5833333 0.2
vt 0.6041667 0.2
vt 0.625 0.2
vt 0.6458333 0.2
vt 0.6666667 0.2
vt 0.6875 0.2
vt 0.7083333 0.2
vt 0.7291667 0.2
vt 0.75 0.2
vt 0.7708333 0.2
vt 0.7916667 0.2
vt 0.8125 0.2
vt 0.8333333 0.2
vt 0.8541667 0.2
vt 0.875 0.2
vt 0.8958333 0.2
vt 0.9166667 0.2
vt 0.9375 0.2
vt 0.9583333 0.2
vt 0.9791667 0.2
vt 1 0.2
vt 0 0.4
vt 0.020833334 0.4
vt 0.041666668 0.4
vt 0.0625 0.4
vt 0.083333336 0.4
vt 0.104166664 0.4
vt 0.125 0.4
vt 0.14583333 0.4
vt 0.16666667 0.4
vt 0.1875 0.4
vt 0.20833333 0.4
vt 0.22916667 0.4
vt 0.25 0.4
vt 0.27083334 0.4
vt 0.29166666 0.4
vt 0.3125 0.4
vt 0.33333334 0.4
vt 0.35416666 0.4
vt 0.375 0.4
vt 0.39583334 0.4
vt 0.41666666 0.4
vt 0.4375 0.4
vt 0.45833334 0.4
vt 0.47916666 0.4
vt 0.5 0.4
vt 0.5208333 0.4
vt 0.5416667 0.4
vt 0.5625 0.4
vt 0.5833333 0.4
vt 0.6041667 0.4
vt 0.625 0.4
vt 0.6458333 0.4
vt 0.6666667 0.4
vt 0.6875 0.4
vt 0.7083333 0.4
vt 0.7291667 0.4
vt 0.75 0.4
vt 0.7708333 0.4
vt 0.7916667 0.4
vt 0.8125 0.4
vt 0.8333333 0.4
vt 0.8541667 0.4
vt 0.875 0.4
vt 0.8958333 0.4
vt 0.9166667 0.4
vt 0.9375 0.4
vt 0.9583333 0.4
vt 0.9791667 0.4
vt 1 0.4
vt 0 0.6
vt 0.020833334 0.6
vt 0.041666668 0.6
vt 0.0625 0.6
vt 0.083333336 0.6
vt 0.104166664 0.6
vt 0.125 0.6
vt 0.14583333 0.6
vt 0.16666667 0.6
vt 0.1875 0.6
vt 0.20833333 0.6
vt 0.22916667 0.6
vt 0.25 0.6
vt 0.27083334 0.6
vt 0.29166666 0.6
vt 0.3125 0.6
vt 0.33333334 0.6
vt 0.35416666 0.6
vt 0.375 0.6
vt 0.39583334 0.6
vt 0.41666666 0.6
vt 0.4375 0.6
vt 0.45833334 0.6
vt 0.47916666 0.6
vt 0.5 0.6
vt 0.5208333 0.6
vt 0.5416667 0.6
vt 0.5625 0.6
vt 0.5833333 0.6
vt 0.6041667 0.6
vt 0.625 0.6
vt 0.6458333 0.6
vt 0.6666667 0.6
vt 0.6875 0.6
vt 0.7083333 0.6
vt 0.7291667 0.6
vt 0.75 0.6
vt 0.7708333 0.6
vt 0.7916667 0.6
vt 0.8125 0.6
vt 0.8333333 0.6
vt 0.8541667 0.6
vt 0.875 0.6
vt 0.8958333 0.6
vt 0.9166667 0.6
vt 0.9375 0.6
vt 0.9583333 0.6
vt 0.9791667 0.6
vt 1 0.6
vt 0 0.8
vt 0.020833334 0.8
vt 0.041666668 0.8
vt 0.0625 0.8
vt 0.083333336 0.8
vt 0.104166664 0.8
vt 0.125 0.8
vt 0.14583333 0.8
vt 0.16666667 0.8
vt 0.1875 0.8
vt 0.20833333 0.8
vt 0.22916667 0.8
vt 0.25 0.8
vt 0.27083334 0.8
vt 0.29166666 0.8
vt 0.3125 0.8
vt 0.33333334 0.8
vt 0.35416666 0.8
vt 0.375 0.8
vt 0.39583334 0.8
vt 0.41666666 0.8
vt 0.4375 0.8
vt 0.45833334 0.8
vt 0.47916666 0.8
vt 0.5 0.8
vt 0.5208333 0.8
vt 0.5416667 0.8
vt 0.5625 0.8
vt 0.5833333 0.8
vt 0.6041667 0.8
vt 0.625 0.8
vt 0.6458333 0.8
vt 0.6666667 0.8
vt 0.6875 0.8
vt 0.7083333 0.8
vt 0.7291667 0.8
vt 0.75 0.8
vt 0.7708333 0.8
vt 0.7916667 0.8
vt 0.8125 0.8
vt 0.8333333 0.8
vt 0.8541667 0.8
vt 0.875 0.8
vt 0.8958333 0.8
vt 0.9166667 0.8
vt 0.9375 0.8
vt 0.9583333 0.8
vt 0.9791667 0.8
vt 1 0.8
vt 0 1
vt 0.020833334 1
vt 0.041666668 1
vt 0.0625 1
vt 0.083333336 1
vt 0.104166664 1
vt 0.125 1
vt 0.14583333 1
vt 0.16666667 1
vt 0.1875 1
vt 0.20833333 1
vt 0.22916667 1
vt 0.25 1
vt 0.27083334 1
vt 0.29166666 1
vt 0.3125 1
vt 0.33333334 1
vt 0.35416666 1
vt 0.375 1
vt 0.39583334 1
vt 0.41666666 1
vt 0.4375 1
vt 0.45833334 1
vt 0.47916666 1
vt 0.5 1
vt 0.5208333 1
vt 0.5416667 1
vt 0.5625 1
vt 0.5833333 1
vt 0.6041667 1
vt 0.625 1
vt 0.6458333 1
vt 0.6666667 1
vt 0.6875 1
vt 0.7083333 1
vt 0.7291667 1
vt 0.75 1
vt 0.7708333 1
vt 0.7916667 1
vt 0.8125 1
vt 0.8333333 1
vt 0.8541667 1
vt 0.875 1
vt 0.8958333 1
vt 0.9166667 1
vt 0.9375 1
vt 0.9583333 1
vt 0.9791667 1
vt 1 1
vt 0.5 0.9
vt 0 0.7
vt 0.041666668 0.7
vt 0.083333336 0.7
vt 0.125 0.7
vt 0.16666667 0.7
vt 0.20833333 0.7
vt 0.25 0.7
vt 0.29166666 0.7
vt 0.33333334 0.7
vt 0.375 0.7
vt 0.41666666 0.7
vt 0.45833334 0.7
vt 0.5 0.7
vt 0.5416667 0.7
vt 0.5833333 0.7
vt 0.625 0.7
vt 0.6666667 0.7
vt 0.7083333 0.7
vt 0.75 0.7
vt 0.7916667 0.7
vt 0.8333333 0.7
vt 0.875 0.7
vt 0.9166667 0.7
vt 0.9583333 0.7
vt 1 0.7
g part_0
usemtl part_0
f 1/1 10/10 2/2
f 10/10 11/11 2/2
f 2/2 11/11 3/3
f 11/11 12/12 3/3
f 3/3 12/12 4/4
f 12/12 13/13 4/4
f 4/4 13/13 5/5
f 13/13 14/14 5/5
f 5/5 14/14 6/6
f 14/14 15/15 6/6
f 6/6 15/15 7/7
f 15/15 16/16 7/7
f 7/7 16/16 8/8
f 16/16 17/17 8/8
f 8/8 17/17 9/9
f 17/17 18/18 9/9
f 10/10 19/19 11/11
f 19/19 20/20 11/11
f 11/11 20/20 12/12
f 20/20 21/21 12/12
f 12/12 21/21 13/13
f 21/21 22/22 13/13
f 13/13 22/22 14/14
f 22/22 23/23 14/14
f 14/14 23/23 15/15
f 23/23 24/24 15/15
f 15/15 24/24 16/16
f 24/24 25/25 16/16
f 16/16 25/25 17/17
f 25/25 26/26 17/17
f 17/17 26/26 18/18
f 26/26 27/27 18/18
f 19/19 28/28 20/20
f 28/28 29/29 20/20
f 20/20 29/29 21/21
f 29/29 30/30 21/21
f 21/21 30/30 22/22
f 30/30 31/31 22/22
f 22/22 31/31 23/23
f 31/31 32/32 23/23
f 23/23 32/32 24/24
f 32/32 33/33 24/24
f 24/24 33/33 25/25
f 33/33 34/34 25/25
f 25/25 34/34 26/26
f 34/34 35/35 26/26
f 26/26 35/35 27/27
f 35/35 36/36 27/27
f 28/28 37/37 29/29
f 37/37 38/38 29/29
f 29/29 38/38 30/30
f 38/38 39/39 30/30
f 30/30 39/39 31/31
f 39/39 40/40 31/31
f 31/31 40/40 32/32
f 40/40 41/41 32/32
f 32/32 41/41 33/33
f 41/41 42/42 33/33
f 33/33 42/42 34/34
f 42/42 43/43 34/34
f 34/34 43/43 35/35
f 43/43 44/44 35/35
f 35/35 44/44 36/36
f 44/44 45/45 36/36
f 37/37 46/46 38/38
f 46/46 47/47 38/38
f 38/38 47/47 39/39
f 47/47 48/48 39/39
f 39/39 48/48 40/40
f 48/48 49/49 40/40
f 40/40 49/49 41/41
f 49/49 50/50 41/41
f 41/41 50/50 42/42
f 50/50 51/51 42/42
f 42/42 51/51 43/43
f 51/51 52/52 43/43
f 43/43 52/52 44/44
f 52/52 53/53 44/44
f 44/44 53/53 45/45
f 53/53 54/54 45/45
f 46/46 55/55 47/47
f 55/55 56/56 47/47
f 47/47 56/56 48/48
f 56/56 57/57 48/48
f 48/48 57/57 49/49
f 57/57 58/58 49/49
f 49/49 58/58 50/50
f 58/58 59/59 50/50
f 50/50 59/59 51/51
f 59/59 60/60 51/51
f 51/51 60/60 52/52
f 60/60 61/61 52/52
f 52/52 61/61 53/53
f 61/61 62/62 53/53
f 53/53 62/62 54/54
f 62/62 63/63 54/54
f 55/55 64/64 56/56
f 64/64 65/65 56/56
f 56/56 65/65 57/57
f 65/65 66/66 57/57
f 57/57 66/66 58/58
f 66/66 67/67 58/58
f 58/58 67/67 59/59
f 67/67 68/68 59/59
f 59/59 68/68 60/60
f 68/68 69/69 60/60
f 60/60 69/69 61/61
f 69/69 70/70 61/61
f 61/61 70/70 62/62
f 70/70 71/71 62/62
f 62/62 71/71 63/63
f 71/71 72/72 63/63
g part_1
usemtl part_1
f 73/73 76/76 74/74
f 76/76 77/77 74/74
f 74/74 77/77 75/75
f 77/77 78/78 75/75
f 76/76 79/79 77/77
f 79/79 80/80 77/77
f 77/77 80/80 78/78
f 80/80 81/81 78/78
f 79/79 82/82 80/80
f 82/82 83/83 80/80
f 80/80 83/83 81/81
f 83/83 84/84 81/81
f 82/82 85/85 83/83
f 85/85 86/86 83/83
f 83/83 86/86 84/84
f 86/86 87/87 84/84
f 85/85 88/88 86/86
f 88/88 89/89 86/86
f 86/86 89/89 87/87
f 89/89 90/90 87/87
f 88/88 91/91 89/89
f 91/91 92/92 89/89
f 89/89 92/92 90/90
f 92/92 93/93 90/90
f 91/91 94/94 92/92
f 94/94 95/95 92/92
f 92/92 95/95 93/93
f 95/95 96/96 93/93
f 94/94 97/97 95/95
f 97/97 98/98 95/95
f 95/95 98/98 96/96
f 98/98 99/99 96/96
f 100/100 103/103 101/101
f 103/103 104/104 101/101
f 101/101 104/104 102/102
f 104/104 105/105 102/102
f 103/103 106/106 104/104
f 106/106 107/107 104/104
f 104/104 107/107 105/105
f 107/107 108/108 105/105
f 106/106 109/109 107/107
f 109/109 110/110 107/107
f 107/107 110/110 108/108
f 110/110 111/111 108/108
f 109/109 112/112 110/110
f 112/112 113/113 110/110
f 110/110 113/113 111/111
f 113/113 114/114 111/111
f 112/112 115/115 113/113
f 115/115 116/116 113/113
f 113/113 116/116 114/114
f 116/116 117/117 114/114
f 115/115 118/118 116/116
f 118/118 119/119 116/116
f 116/116 119/119 117/117
f 119/119 120/120 117/117
f 118/118 121/121 119/119
f 121/121 122/122 119/119
f 119/119 122/122 120/120
f 122/122 123/123 120/120
f 121/121 124/124 122/122
f 124/124 125/125 122/122
f 122/122 125/125 123/123
f 125/125 126/126 123/123
g part_2
usemtl part_2
f 127/127 134/134 128/128
f 134/134 135/135 128/128
f 128/128 135/135 129/129
f 135/135 136/136 129/129
f 129/129 136/136 130/130
f 136/136 137/137 130/130
f 130/130 137/137 131/131
f 137/137 138/138 131/131
f 131/131 138/138 132/132
f 138/138 139/139 132/132
f 132/132 139/139 133/133
f 139/139 140/140 133/133
f 134/134 141/141 135/135
f 141/141 142/142 135/135
f 135/135 142/142 136/136
f 142/142 143/143 136/136
f 136/136 143/143 137/137
f 143/143 144/144 137/137
f 137/137 144/144 138/138
f 144/144 145/145 138/138
f 138/138 145/145 139/139
f 145/145 146/146 139/139
f 139/139 146/146 140/140
f 146/146 147/147 140/140
f 141/141 148/148 142/142
f 148/148 149/149 142/142
f 142/142 149/149 143/143
f 149/149 150/150 143/143
f 143/143 150/150 144/144
f 150/150 151/151 144/144
f 144/144 151/151 145/145
f 151/151 152/152 145/145
f 145/145 152/152 146/146
f 152/152 153/153 146/146
f 146/146 153/153 147/147
f 153/153 154/154 147/147
f 148/148 155/155 149/149
f 155/155 156/156 149/149
f 149/149 156/156 150/150
f 156/156 157/157 150/150
f 150/150 157/157 151/151
f 157/157 158/158 151/151
f 151/151 158/158 152/152
f 158/158 159/159 152/152
f 152/152 159/159 153/153
f 159/159 160/160 153/153
f 153/153 160/160 154/154
f 160/160 161/161 154/154
f 155/155 162/162 156/156
f 162/162 163/163 156/156
f 156/156 163/163 157/157
f 163/163 164/164 157/157
f 157/157 164/164 158/158
f 164/164 165/165 158/158
f 158/158 165/165 159/159
f 165/165 166/166 159/159
f 159/159 166/166 160/160
f 166/166 167/167 160/160
f 160/160 167/167 161/161
f 167/167 168/168 161/161
f 162/162 169/169 163/163
f 169/169 170/170 163/163
f 163/163 170/170 164/164
f 170/170 171/171 164/164
f 164/164 171/171 165/165
f 171/171 172/172 165/165
f 165/165 172/172 166/166
f 172/172 173/173 166/166
f 166/166 173/173 167/167
f 173/173 174/174 167/167
f 167/167 174/174 168/168
f 174/174 175/175 168/168
f 169/169 176/176 170/170
f 176/176 177/177 170/170
f 170/170 177/177 171/171
f 177/177 178/178 171/171
f 171/171 178/178 172/172
f 178/178 179/179 172/172
f 172/172 179/179 173/173
f 179/179 180/180 173/173
f 173/173 180/180 174/174
f 180/180 181/181 174/174
f 174/174 181/181 175/175
f 181/181 182/182 175/175
f 176/176 183/183 177/177
f 183/183 184/184 177/177
f 177/177 184/184 178/178
f 184/184 185/185 178/178
f 178/178 185/185 179/179
f 185/185 186/186 179/179
f 179/179 186/186 180/180
f 186/186 187/187 180/180
f 180/180 187/187 181/181
f 187/187 188/188 181/181
f 181/181 188/188 182/182
f 188/188 189/189 182/182
f 183/183 190/190 184/184
f 190/190 191/191 184/184
f 184/184 191/191 185/185
f 191/191 192/192 185/185
f 185/185 192/192 186/186
f 192/192 193/193 186/186
f 186/186 193/193 187/187
f 193/193 194/194 187/187
f 187/187 194/194 188/188
f 194/194 195/195 188/188
f 188/188 195/195 189/189
f 195/195 196/196 189/189
f 190/190 197/197 191/191
f 197/197 198/198 191/191
f 191/191 198/198 192/192
f 198/198 199/199 192/192
f 192/192 199/199 193/193
f 199/199 200/200 193/193
f 193/193 200/200 194/194
f 200/200 201/201 194/194
f 194/194 201/201 195/195
f 201/201 202/202 195/195
f 195/195 202/202 196/196
f 202/202 203/203 196/196
f 197/197 204/204 198/198
f 204/204 205/205 198/198
f 198/198 205/205 199/199
f 205/205 206/206 199/199
f 199/199 206/206 200/200
f 206/206 207/207 200/200
f 200/200 207/207 201/201
f 207/207 208/208 201/201
f 201/201 208/208 202/202
f 208/208 209/209 202/202
f 202/202 209/209 203/203
f 209/209 210/210 203/203
f 204/204 211/211 205/205
f 211/211 212/212 205/205
f 205/205 212/212 206/206
f 212/212 213/213 206/206
f 206/206 213/213 207/207
f 213/213 214/214 207/207
f 207/207 214/214 208/208
f 214/214 215/215 208/208
f 208/208 215/215 209/209
f 215/215 216/216 209/209
f 209/209 216/216 210/210
f 216/216 217/217 210/210
f 218/218 225/225 219/219
f 225/225 226/226 219/219
f 219/219 226/226 220/220
f 226/226 227/227 220/220
f 220/220 227/227 221/221
f 227/227 228/228 221/221
f 221/221 228/228 222/222
f 228/228 229/229 222/222
f 222/222 229/229 223/223
f 229/229 230/230 223/223
f 223/223 230/230 224/224
f 230/230 231/231 224/224
f 225/225 232/232 226/226
f 232/232 233/233 226/226
f 226/226 233/233 227/227
f 233/233 234/234 227/227
f 227/227 234/234 228/228
f 234/234 235/235 228/228
f 228/228 235/235 229/229
f 235/235 236/236 229/229
f 229/229 236/236 230/230
f 236/236 237/237 230/230
f 230/230 237/237 231/231
f 237/237 238/238 231/231
f 232/232 239/239 233/233
f 239/239 240/240 233/233
f 233/233 240/240 234/234
f 240/240 241/241 234/234
f 234/234 241/241 235/235
f 241/241 242/242 235/235
f 235/235 242/242 236/236
f 242/242 243/243 236/236
f 236/236 243/243 237/237
f 243/243 244/244 237/237
f 237/237 244/244 238/238
f 244/244 245/245 238/238
f 239/239 246/246 240/240
f 246/246 247/247 240/240
f 240/240 247/247 241/241
f 247/247 248/248 241/241
f 241/241 248/248 242/242
f 248/248 249/249 242/242
f 242/242 249/249 243/243
f 249/249 250/250 243/243
f 243/243 250/250 244/244
f 250/250 251/251 244/244
f 244/244 251/251 245/245
f 251/251 252/252 245/245
f 246/246 253/253 247/247
f 253/253 254/254 247/247
f 247/247 254/254 248/248
f 254/254 255/255 248/248
f 248/248 255/255 249/249
f 255/255 256/256 249/249
f 249/249 256/256 250/250
f 256/256 257/257 250/250
f 250/250 257/257 251/251
f 257/257 258/258 251/251
f 251/251 258/258 252/252
f 258/258 259/259 252/252
f 253/253 260/260 254/254
f 260/260 261/261 254/254
f 254/254 261/261 255/255
f 261/261 262/262 255/255
f 255/255 262/262 256/256
f 262/262 263/263 256/256
f 256/256 263/263 257/257
f 263/263 264/264 257/257
f 257/257 264/264 258/258
f 264/264 265/265 258/258
f 258/258 265/265 259/259
f 265/265 266/266 259/259
f 260/260 267/267 261/261
f 267/267 268/268 261/261
f 261/261 268/268 262/262
f 268/268 269/269 262/262
f 262/262 269/269 263/263
f 269/269 270/270 263/263
f 263/263 270/270 264/264
f 270/270 271/271 264/264
f 264/264 271/271 265/265
f 271/271 272/272 265/265
f 265/265 272/272 266/266
f 272/272 273/273 266/266
f 267/267 274/274 268/268
f 274/274 275/275 268/268
f 268/268 275/275 269/269
f 275/275 276/276 269/269
f 269/269 276/276 270/270
f 276/276 277/277 270/270
f 270/270 277/277 271/271
f 277/277 278/278 271/271
f 271/271 278/278 272/272
f 278/278 279/279 272/272
f 272/272 279/279 273/273
f 279/279 280/280 273/273
f 274/274 281/281 275/275
f 281/281 282/282 275/275
f 275/275 282/282 276/276
f 282/282 283/283 276/276
f 276/276 283/283 277/277
f 283/283 284/284 277/277
f 277/277 284/284 278/278
f 284/284 285/285 278/278
f 278/278 285/285 279/279
f 285/285 286/286 279/279
f 279/279 286/286 280/280
f 286/286 287/287 280/280
f 281/281 288/288 282/282
f 288/288 289/289 282/282
f 282/282 289/289 283/283
f 289/289 290/290 283/283
f 283/283 290/290 284/284
f 290/290 291/291 284/284
f 284/284 291/291 285/285
f 291/291 292/292 285/285
f 285/285 292/292 286/286
f 292/292 293/293 286/286
f 286/286 293/293 287/287
f 293/293 294/294 287/287
f 288/288 295/295 289/289
f 295/295 296/296 289/289
f 289/289 296/296 290/290
f 296/296 297/297 290/290
f 290/290 297/297 291/291
f 297/297 298/298 291/291
f 291/291 298/298 292/292
f 298/298 299/299 292/292
f 292/292 299/299 293/293
f 299/299 300/300 293/293
f 293/293 300/300 294/294
f 300/300 301/301 294/294
f 295/295 302/302 296/296
f 302/302 303/303 296/296
f 296/296 303/303 297/297
f 303/303 304/304 297/297
f 297/297 304/304 298/298
f 304/304 305/305 298/298
f 298/298 305/305 299/299
f 305/305 306/306 299/299
f 299/299 306/306 300/300
f 306/306 307/307 300/300
f 300/300 307/307 301/301
f 307/307 308/308 301/301
f 309/309 316/316 310/310
f 316/316 317/317 310/310
f 310/310 317/317 311/311
f 317/317 318/318 311/311
f 311/311 318/318 312/312
f 318/318 319/319 312/312
f 312/312 319/319 313/313
f 319/319 320/320 313/313
f 313/313 320/320 314/314
f 320/320 321/321 314/314
f 314/314 321/321 315/315
f 321/321 322/322 315/315
f 316/316 323/323 317/317
f 323/323 324/324 317/317
f 317/317 324/324 318/318
f 324/324 325/325 318/318
f 318/318 325/325 319/319
f 325/325 326/326 319/319
f 319/319 326/326 320/320
f 326/326 327/327 320/320
f 320/320 327/327 321/321
f 327/327 328/328 321/321
f 321/321 328/328 322/322
f 328/328 329/329 322/322
f 323/323 330/330 324/324
f 330/330 331/331 324/324
f 324/324 331/331 325/325
f 331/331 332/332 325/325
f 325/325 332/332 326/326
f 332/332 333/333 326/326
f 326/326 333/333 327/327
f 333/333 334/334 327/327
f 327/327 334/334 328/328
f 334/334 335/335 328/328
f 328/328 335/335 329/329
f 335/335 336/336 329/329
f 330/330 337/337 331/331
f 337/337 338/338 331/331
f 331/331 338/338 332/332
f 338/338 339/339 332/332
f 332/332 339/339 333/333
f 339/339 340/340 333/333
f 333/333 340/340 334/334
f 340/340 341/341 334/334
f 334/334 341/341 335/335
f 341/341 342/342 335/335
f 335/335 342/342 336/336
f 342/342 343/343 336/336
f 337/337 344/344 338/338
f 344/344 345/345 338/338
f 338/338 345/345 339/339
f 345/345 346/346 339/339
f 339/339 346/346 340/340
f 346/346 347/347 340/340
f 340/340 347/347 341/341
f 347/347 348/348 341/341
f 341/341 348/348 342/342
f 348/348 349/349 342/342
f 342/342 349/349 343/343
f 349/349 350/350 343/343
f 344/344 351/351 345/345
f 351/351 352/352 345/345
f 345/345 352/352 346/346
f 352/352 353/353 346/346
f 346/346 353/353 347/347
f 353/353 354/354 347/347
f 347/347 354/354 348/348
f 354/354 355/355 348/348
f 348/348 355/355 349/349
f 355/355 356/356 349/349
f 349/349 356/356 350/350
f 356/356 357/357 350/350
f 351/351 358/358 352/352
f 358/358 359/359 352/352
f 352/352 359/359 353/353
f 359/359 360/360 353/353
f 353/353 360/360 354/354
f 360/360 361/361 354/354
f 354/354 361/361 355/355
f 361/361 362/362 355/355
f 355/355 362/362 356/356
f 362/362 363/363 356/356
f 356/356 363/363 357/357
f 363/363 364/364 357/357
f 358/358 365/365 359/359
f 365/365 366/366 359/359
f 359/359 366/366 360/360
f 366/366 367/367 360/360
f 360/360 367/367 361/361
f 367/367 368/368 361/361
f 361/361 368/368 362/362
f 368/368 369/369 362/362
f 362/362 369/369 363/363
f 369/369 370/370 363/363
f 363/363 370/370 364/364
f 370/370 371/371 364/364
f 365/365 372/372 366/366
f 372/372 373/373 366/366
f 366/366 373/373 367/367
f 373/373 374/374 367/367
f 367/367 374/374 368/368
f 374/374 375/375 368/368
f 368/368 375/375 369/369
f 375/375 376/376 369/369
f 369/369 376/376 370/370
f 376/376 377/377 370/370
f 370/370 377/377 371/371
f 377/377 378/378 371/371
f 372/372 379/379 373/373
f 379/379 380/380 373/373
f 373/373 380/380 374/374
f 380/380 381/381 374/374
f 374/374 381/381 375/375
f 381/381 382/382 375/375
f 375/375 382/382 376/376
f 382/382 383/383 376/376
f 376/376 383/383 377/377
f 383/383 384/384 377/377
f 377/377 384/384 378/378
f 384/384 385/385 378/378
f 379/379 386/386 380/380
f 386/386 387/387 380/380
f 380/380 387/387 381/381
f 387/387 388/388 381/381
f 381/381 388/388 382/382
f 388/388 389/389 382/382
f 382/382 389/389 383/383
f 389/389 390/390 383/383
f 383/383 390/390 384/384
f 390/390 391/391 384/384
f 384/384 391/391 385/385
f 391/391 392/392 385/385
f 386/386 393/393 387/387
f 393/393 394/394 387/387
f 387/387 394/394 388/388
f 394/394 395/395 388/388
f 388/388 395/395 389/389
f 395/395 396/396 389/389
f 389/389 396/396 390/390
f 396/396 397/397 390/390
f 390/390 397/397 391/391
f 397/397 398/398 391/391
f 391/391 398/398 392/392
f 398/398 399/399 392/392
f 400/400 407/407 401/401
f 407/407 408/408 401/401
f 401/401 408/408 402/402
f 408/408 409/409 402/402
f 402/402 409/409 403/403
f 409/409 410/410 403/403
f 403/403 410/410 404/404
f 410/410 411/411 404/404
f 404/404 411/411 405/405
f 411/411 412/412 405/405
f 405/405 412/412 406/406
f 412/412 413/413 406/406
f 407/407 414/414 408/408
f 414/414 415/415 408/408
f 408/408 415/415 409/409
f 415/415 416/416 409/409
f 409/409 416/416 410/410
f 416/416 417/417 410/410
f 410/410 417/417 411/411
f 417/417 418/418 411/411
f 411/411 418/418 412/412
f 418/418 419/419 412/412
f 412/412 419/419 413/413
f 419/419 420/420 413/413
f 414/414 421/421 415/415
f 421/421 422/422 415/415
f 415/415 422/422 416/416
f 422/422 423/423 416/416
f 416/416 423/423 417/417
f 423/423 424/424 417/417
f 417/417 424/424 418/418
f 424/424 425/425 418/418
f 418/418 425/425 419/419
f 425/425 426/426 419/419
f 419/419 426/426 420/420
f 426/426 427/427 420/420
f 421/421 428/428 422/422
f 428/428 429/429 422/422
f 422/422 429/429 423/423
f 429/429 430/430 423/423
f 423/423 430/430 424/424
f 430/430 431/431 424/424
f 424/424 431/431 425/425
f 431/431 432/432 425/425
f 425/425 432/432 426/426
f 432/432 433/433 426/426
f 426/426 433/433 427/427
f 433/433 434/434 427/427
f 428/428 435/435 429/429
f 435/435 436/436 429/429
f 429/429 436/436 430/430
f 436/436 437/437 430/430
f 430/430 437/437 431/431
f 437/437 438/438 431/431
f 431/431 438/438 432/432
f 438/438 439/439 432/432
f 432/432 439/439 433/433
f 439/439 440/440 433/433
f 433/433 440/440 434/434
f 440/440 441/441 434/434
f 435/435 442/442 436/436
f 442/442 443/443 436/436
f 436/436 443/443 437/437
f 443/443 444/444 437/437
f 437/437 444/444 438/438
f 444/444 445/445 438/438
f 438/438 445/445 439/439
f 445/445 446/446 439/439
f 439/439 446/446 440/440
f 446/446 447/447 440/440
f 440/440 447/447 441/441
f 447/447 448/448 441/441
f 442/442 449/449 443/443
f 449/449 450/450 443/443
f 443/443 450/450 444/444
f 450/450 451/451 444/444
f 444/444 451/451 445/445
f 451/451 452/452 445/445
f 445/445 452/452 446/446
f 452/452 453/453 446/446
f 446/446 453/453 447/447
f 453/453 454/454 447/447
f 447/447 454/454 448/448
f 454/454 455/455 448/448
f 449/449 456/456 450/450
f 456/456 457/457 450/450
f 450/450 457/457 451/451
f 457/457 458/458 451/451
f 451/451 458/458 452/452
f 458/458 459/459 452/452
f 452/452 459/459 453/453
f 459/459 460/460 453/453
f 453/453 460/460 454/454
f 460/460 461/461 454/454
f 454/454 461/461 455/455
f 461/461 462/462 455/455
f 456/456 463/463 457/457
f 463/463 464/464 457/457
f 457/457 464/464 458/458
f 464/464 465/465 458/458
f 458/458 465/465 459/459
f 465/465 466/466 459/459
f 459/459 466/466 460/460
f 466/466 467/467 460/460
f 460/460 467/467 461/461
f 467/467 468/468 461/461
f 461/461 468/468 462/462
f 468/468 469/469 462/462
f 463/463 470/470 464/464
f 470/470 471/471 464/464
f 464/464 471/471 465/465
f 471/471 472/472 465/465
f 465/465 472/472 466/466
f 472/472 473/473 466/466
f 466/466 473/473 467/467
f 473/473 474/474 467/467
f 467/467 474/474 468/468
f 474/474 475/475 468/468
f 468/468 475/475 469/469
f 475/475 476/476 469/469
f 470/470 477/477 471/471
f 477/477 478/478 471/471
f 471/471 478/478 472/472
f 478/478 479/479 472/472
f 472/472 479/479 473/473
f 479/479 480/480 473/473
f 473/473 480/480 474/474
f 480/480 481/481 474/474
f 474/474 481/481 475/475
f 481/481 482/482 475/475
f 475/475 482/482 476/476
f 482/482 483/483 476/476
f 477/477 484/484 478/478
f 484/484 485/485 478/478
f 478/478 485/485 479/479
f 485/485 486/486 479/479
f 479/479 486/486 480/480
f 486/486 487/487 480/480
f 480/480 487/487 481/481
f 487/487 488/488 481/481
f 481/481 488/488 482/482
f 488/488 489/489 482/482
f 482/482 489/489 483/483
f 489/489 490/490 483/483
f 491/491 498/498 492/492
f 498/498 499/499 492/492
f 492/492 499/499 493/493
f 499/499 500/500 493/493
f 493/493 500/500 494/494
f 500/500 501/501 494/494
f 494/494 501/501 495/495
f 501/501 502/502 495/495
f 495/495 502/502 496/496
f 502/502 503/503 496/496
f 496/496 503/503 497/497
f 503/503 504/504 497/497
f 498/498 505/505 499/499
f 505/505 506/506 499/499
f 499/499 506/506 500/500
f 506/506 507/507 500/500
f 500/500 507/507 501/501
f 507/507 508/508 501/501
f 501/501 508/508 502/502
f 508/508 509/509 502/502
f 502/502 509/509 503/503
f 509/509 510/510 503/503
f 503/503 510/510 504/504
f 510/510 511/511 504/504
f 505/505 512/512 506/506
f 512/512 513/513 506/506
f 506/506 513/513 507/507
f 513/513 514/514 507/507
f 507/507 514/514 508/508
f 514/514 515/515 508/508
f 508/508 515/515 509/509
f 515/515 516/516 509/509
f 509/509 516/516 510/510
f 516/516 517/517 510/510
f 510/510 517/517 511/511
f 517/517 518/518 511/511
f 512/512 519/519 513/513
f 519/519 520/520 513/513
f 513/513 520/520 514/514
f 520/520 521/521 514/514
f 514/514 521/521 515/515
f 521/521 522/522 515/515
f 515/515 522/522 516/516
f 522/522 523/523 516/516
f 516/516 523/523 517/517
f 523/523 524/524 517/517
f 517/517 524/524 518/518
f 524/524 525/525 518/518
f 519/519 526/526 520/520
f 526/526 527/527 520/520
f 520/520 527/527 521/521
f 527/527 528/528 521/521
f 521/521 528/528 522/522
f 528/528 529/529 522/522
f 522/522 529/529 523/523
f 529/529 530/530 523/523
f 523/523 530/530 524/524
f 530/530 531/531 524/524
f 524/524 531/531 525/525
f 531/531 532/532 525/525
f 526/526 533/533 527/527
f 533/533 534/534 527/527
f 527/527 534/534 528/528
f 534/534 535/535 528/528
f 528/528 535/535 529/529
f 535/535 536/536 529/529
f 529/529 536/536 530/530
f 536/536 537/537 530/530
f 530/530 537/537 531/531
f 537/537 538/538 531/531
f 531/531 538/538 532/532
f 538/538 539/539 532/532
f 533/533 540/540 534/534
f 540/540 541/541 534/534
f 534/534 541/541 535/535
f 541/541 542/542 535/535
f 535/535 542/542 536/536
f 542/542 543/543 536/536
f 536/536 543/543 537/537
f 543/543 544/544 537/537
f 537/537 544/544 538/538
f 544/544 545/545 538/538
f 538/538 545/545 539/539
f 545/545 546/546 539/539
f 540/540 547/547 541/541
f 547/547 548/548 541/541
f 541/541 548/548 542/542
f 548/548 549/549 542/542
f 542/542 549/549 543/543
f 549/549 550/550 543/543
f 543/543 550/550 544/544
f 550/550 551/551 544/544
f 544/544 551/551 545/545
f 551/551 552/552 545/545
f 545/545 552/552 546/546
f 552/552 553/553 546/546
f 547/547 554/554 548/548
f 554/554 555/555 548/548
f 548/548 555/555 549/549
f 555/555 556/556 549/549
f 549/549 556/556 550/550
f 556/556 557/557 550/550
f 550/550 557/557 551/551
f 557/557 558/558 551/551
f 551/551 558/558 552/552
f 558/558 559/559 552/552
f 552/552 559/559 553/553
f 559/559 560/560 553/553
f 554/554 561/561 555/555
f 561/561 562/562 555/555
f 555/555 562/562 556/556
f 562/562 563/563 556/556
f 556/556 563/563 557/557
f 563/563 564/564 557/557
f 557/557 564/564 558/558
f 564/564 565/565 558/558
f 558/558 565/565 559/559
f 565/565 566/566 559/559
f 559/559 566/566 560/560
f 566/566 567/567 560/560
f 561/561 568/568 562/562
f 568/568 569/569 562/562
f 562/562 569/569 563/563
f 569/569 570/570 563/563
f 563/563 570/570 564/564
f 570/570 571/571 564/564
f 564/564 571/571 565/565
f 571/571 572/572 565/565
f 565/565 572/572 566/566
f 572/572 573/573 566/566
f 566/566 573/573 567/567
f 573/573 574/574 567/567
f 568/568 575/575 569/569
f 575/575 576/576 569/569
f 569/569 576/576 570/570
f 576/576 577/577 570/570
f 570/570 577/577 571/571
f 577/577 578/578 571/571
f 571/571 578/578 572/572
f 578/578 579/579 572/572
f 572/572 579/579 573/573
f 579/579 580/580 573/573
f 573/573 580/580 574/574
f 580/580 581/581 574/574
f 582/582 589/589 583/583
f 589/589 590/590 583/583
f 583/583 590/590 584/584
f 590/590 591/591 584/584
f 584/584 591/591 585/585
f 591/591 592/592 585/585
f 585/585 592/592 586/586
f 592/592 593/593 586/586
f 586/586 593/593 587/587
f 593/593 594/594 587/587
f 587/587 594/594 588/588
f 594/594 595/595 588/588
f 589/589 596/596 590/590
f 596/596 597/597 590/590
f 590/590 597/597 591/591
f 597/597 598/598 591/591
f 591/591 598/598 592/592
f 598/598 599/599 592/592
f 592/592 599/599 593/593
f 599/599 600/600 593/593
f 593/593 600/600 594/594
f 600/600 601/601 594/594
f 594/594 601/601 595/595
f 601/601 602/602 595/595
f 596/596 603/603 597/597
f 603/603 604/604 597/597
f 597/597 604/604 598/598
f 604/604 605/605 598/598
f 598/598 605/605 599/599
f 605/605 606/606 599/599
f 599/599 606/606 600/600
f 606/606 607/607 600/600
f 600/600 607/607 601/601
f 607/607 608/608 601/601
f 601/601 608/608 602/602
f 608/608 609/609 602/602
f 603/603 610/610 604/604
f 610/610 611/611 604/604
f 604/604 611/611 605/605
f 611/611 612/612 605/605
f 605/605 612/612 606/606
f 612/612 613/613 606/606
f 606/606 613/613 607/607
f 613/613 614/614 607/607
f 607/607 614/614 608/608
f 614/614 615/615 608/608
f 608/608 615/615 609/609
f 615/615 616/616 609/609
f 610/610 617/617 611/611
f 617/617 618/618 611/611
f 611/611 618/618 612/612
f 618/618 619/619 612/612
f 612/612 619/619 613/613
f 619/619 620/620 613/613
f 613/613 620/620 614/614
f 620/620 621/621 614/614
f 614/614 621/621 615/615
f 621/621 622/622 615/615
f 615/615 622/622 616/616
f 622/622 623/623 616/616
f 617/617 624/624 618/618
f 624/624 625/625 618/618
f 618/618 625/625 619/619
f 625/625 626/626 619/619
f 619/619 626/626 620/620
f 626/626 627/627 620/620
f 620/620 627/627 621/621
f 627/627 628/628 621/621
f 621/621 628/628 622/622
f 628/628 629/629 622/622
f 622/622 629/629 623/623
f 629/629 630/630 623/623
f 624/624 631/631 625/625
f 631/631 632/632 625/625
f 625/625 632/632 626/626
f 632/632 633/633 626/626
f 626/626 633/633 627/627
f 633/633 634/634 627/627
f 627/627 634/634 628/628
f 634/634 635/635 628/628
f 628/628 635/635 629/629
f 635/635 636/636 629/629
f 629/629 636/636 630/630
f 636/636 637/637 630/630
f 631/631 638/638 632/632
f 638/638 639/639 632/632
f 632/632 639/639 633/633
f 639/639 640/640 633/633
f 633/633 640/640 634/634
f 640/640 641/641 634/634
f 634/634 641/641 635/635
f 641/641 642/642 635/635
f 635/635 642/642 636/636
f 642/642 643/643 636/636
f 636/636 643/643 637/637
f 643/643 644/644 637/637
f 638/638 645/645 639/639
f 645/645 646/646 639/639
f 639/639 646/646 640/640
f 646/646 647/647 640/640
f 640/640 647/647 641/641
f 647/647 648/648 641/641
f 641/641 648/648 642/642
f 648/648 649/649 642/642
f 642/642 649/649 643/643
f 649/649 650/650 643/643
f 643/643 650/650 644/644
f 650/650 651/651 644/644
f 645/645 652/652 646/646
f 652/652 653/653 646/646
f 646/646 653/653 647/647
f 653/653 654/654 647/647
f 647/647 654/654 648/648
f 654/654 655/655 648/648
f 648/648 655/655 649/649
f 655/655 656/656 649/649
f 649/649 656/656 650/650
f 656/656 657/657 650/650
f 650/650 657/657 651/651
f 657/657 658/658 651/651
f 652/652 659/659 653/653
f 659/659 660/660 653/653
f 653/653 660/660 654/654
f 660/660 661/661 654/654
f 654/654 661/661 655/655
f 661/661 662/662 655/655
f 655/655 662/662 656/656
f 662/662 663/663 656/656
f 656/656 663/663 657/657
f 663/663 664/664 657/657
f 657/657 664/664 658/658
f 664/664 665/665 658/658
f 659/659 666/666 660/660
f 666/666 667/667 660/660
f 660/660 667/667 661/661
f 667/667 668/668 661/661
f 661/661 668/668 662/662
f 668/668 669/669 662/662
f 662/662 669/669 663/663
f 669/669 670/670 663/663
f 663/663 670/670 664/664
f 670/670 671/671 664/664
f 664/664 671/671 665/665
f 671/671 672/672 665/665
g part_3
usemtl part_3
f 673/673 674/674 722/722
f 722/722 674/674 723/723
f 674/674 675/675 723/723
f 723/723 675/675 724/724
f 675/675 676/676 724/724
f 724/724 676/676 725/725
f 676/676 677/677 725/725
f 725/725 677/677 726/726
f 677/677 678/678 726/726
f 726/726 678/678 727/727
f 678/678 679/679 727/727
f 727/727 679/679 728/728
f 679/679 680/680 728/728
f 728/728 680/680 729/729
f 680/680 681/681 729/729
f 729/729 681/681 730/730
f 681/681 682/682 730/730
f 730/730 682/682 731/731
f 682/682 683/683 731/731
f 731/731 683/683 732/732
f 683/683 684/684 732/732
f 732/732 684/684 733/733
f 684/684 685/685 733/733
f 733/733 685/685 734/734
f 685/685 686/686 734/734
f 734/734 686/686 735/735
f 686/686 687/687 735/735
f 735/735 687/687 736/736
f 687/687 688/688 736/736
f 736/736 688/688 737/737
f 688/688 689/689 737/737
f 737/737 689/689 738/738
f 689/689 690/690 738/738
f 738/738 690/690 739/739
f 690/690 691/691 739/739
f 739/739 691/691 740/740
f 691/691 692/692 740/740
f 740/740 692/692 741/741
f 692/692 693/693 741/741
f 741/741 693/693 742/742
f 693/693 694/694 742/742
f 742/742 694/694 743/743
f 694/694 695/695 743/743
f 743/743 695/695 744/744
f 695/695 696/696 744/744
f 744/744 696/696 745/745
f 696/696 697/697 745/745
f 745/745 697/697 746/746
f 697/697 698/698 746/746
f 746/746 698/698 747/747
f 698/698 699/699 747/747
f 747/747 699/699 748/748
f 699/699 700/700 748/748
f 748/748 700/700 749/749
f 700/700 701/701 749/749
f 749/749 701/701 750/750
f 701/701 702/702 750/750
f 750/750 702/702 751/751
f 702/702 703/703 751/751
f 751/751 703/703 752/752
f 703/703 704/704 752/752
f 752/752 704/704 753/753
f 704/704 705/705 753/753
f 753/753 705/705 754/754
f 705/705 706/706 754/754
f 754/754 706/706 755/755
f 706/706 707/707 755/755
f 755/755 707/707 756/756
f 707/707 708/708 756/756
f 756/756 708/708 757/757
f 708/708 709/709 757/757
f 757/757 709/709 758/758
f 709/709 710/710 758/758
f 758/758 710/710 759/759
f 710/710 711/711 759/759
f 759/759 711/711 760/760
f 711/711 712/712 760/760
f 760/760 712/712 761/761
f 712/712 713/713 761/761
f 761/761 713/713 762/762
f 713/713 714/714 762/762
f 762/762 714/714 763/763
f 714/714 715/715 763/763
f 763/763 715/715 764/764
f 715/715 716/716 764/764
f 764/764 716/716 765/765
f 716/716 717/717 765/765
f 765/765 717/717 766/766
f 717/717 718/718 766/766
f 766/766 718/718 767/767
f 718/718 719/719 767/767
f 767/767 719/719 768/768
f 719/719 720/720 768/768
f 768/768 720/720 769/769
f 720/720 721/721 769/769
f 769/769 721/721 770/770
f 722/722 723/723 771/771
f 771/771 723/723 772/772
f 723/723 724/724 772/772
f 772/772 724/724 773/773
f 724/724 725/725 773/773
f 773/773 725/725 774/774
f 725/725 726/726 774/774
f 774/774 726/726 775/775
f 726/726 727/727 775/775
f 775/775 727/727 776/776
f 727/727 728/728 776/776
f 776/776 728/728 777/777
f 728/728 729/729 777/777
f 777/777 729/729 778/778
f 729/729 730/730 778/778
f 778/778 730/730 779/779
f 730/730 731/731 779/779
f 779/779 731/731 780/780
f 731/731 732/732 780/780
f 780/780 732/732 781/781
f 732/732 733/733 781/781
f 781/781 733/733 782/782
f 733/733 734/734 782/782
f 782/782 734/734 783/783
f 734/734 735/735 783/783
f 783/783 735/735 784/784
f 735/735 736/736 784/784
f 784/784 736/736 785/785
f 736/736 737/737 785/785
f 785/785 737/737 786/786
f 737/737 738/738 786/786
f 786/786 738/738 787/787
f 738/738 739/739 787/787
f 787/787 739/739 788/788
f 739/739 740/740 788/788
f 788/788 740/740 789/789
f 740/740 741/741 789/789
f 789/789 741/741 790/790
f 741/741 742/742 790/790
f 790/790 742/742 791/791
f 742/742 743/743 791/791
f 791/791 743/743 792/792
f 743/743 744/744 792/792
f 792/792 744/744 793/793
f 744/744 745/745 793/793
f 793/793 745/745 794/794
f 745/745 746/746 794/794
f 794/794 746/746 795/795
f 746/746 747/747 795/795
f 795/795 747/747 796/796
f 747/747 748/748 796/796
f 796/796 748/748 797/797
f 748/748 749/749 797/797
f 797/797 749/749 798/798
f 749/749 750/750 798/798
f 798/798 750/750 799/799
f 750/750 751/751 799/799
f 799/799 751/751 800/800
f 751/751 752/752 800/800
f 800/800 752/752 801/801
f 752/752 753/753 801/801
f 801/801 753/753 802/802
f 753/753 754/754 802/802
f 802/802 754/754 803/803
f 754/754 755/755 803/803
f 803/803 755/755 804/804
f 755/755 756/756 804/804
f 804/804 756/756 805/805
f 756/756 757/757 805/805
f 805/805 757/757 806/806
f 757/757 758/758 806/806
f 806/806 758/758 807/807
f 758/758 759/759 807/807
f 807/807 759/759 808/808
f 759/759 760/760 808/808
f 808/808 760/760 809/809
f 760/760 761/761 809/809
f 809/809 761/761 810/810
f 761/761 762/762 810/810
f 810/810 762/762 811/811
f 762/762 763/763 811/811
f 811/811 763/763 812/812
f 763/763 764/764 812/812
f 812/812 764/764 813/813
f 764/764 765/765 813/813
f 813/813 765/765 814/814
f 765/765 766/766 814/814
f 814/814 766/766 815/815
f 766/766 767/767 815/815
f 815/815 767/767 816/816
f 767/767 768/768 816/816
f 816/816 768/768 817/817
f 768/768 769/769 817/817
f 817/817 769/769 818/818
f 769/769 770/770 818/818
f 818/818 770/770 819/819
f 771/771 772/772 820/820
f 820/820 772/772 821/821
f 772/772 773/773 821/821
f 821/821 773/773 822/822
f 773/773 774/774 822/822
f 822/822 774/774 823/823
f 774/774 775/775 823/823
f 823/823 775/775 824/824
f 775/775 776/776 824/824
f 824/824 776/776 825/825
f 776/776 777/777 825/825
f 825/825 777/777 826/826
f 777/777 778/778 826/826
f 826/826 778/778 827/827
f 778/778 779/779 827/827
f 827/827 779/779 828/828
f 779/779 780/780 828/828
f 828/828 780/780 829/829
f 780/780 781/781 829/829
f 829/829 781/781 830/830
f 781/781 782/782 830/830
f 830/830 782/782 831/831
f 782/782 783/783 831/831
f 831/831 783/783 832/832
f 783/783 784/784 832/832
f 832/832 784/784 833/833
f 784/784 785/785 833/833
f 833/833 785/785 834/834
f 785/785 786/786 834/834
f 834/834 786/786 835/835
f 786/786 787/787 835/835
f 835/835 787/787 836/836
f 787/787 788/788 836/836
f 836/836 788/788 837/837
f 788/788 789/789 837/837
f 837/837 789/789 838/838
f 789/789 790/790 838/838
f 838/838 790/790 839/839
f 790/790 791/791 839/839
f 839/839 791/791 840/840
f 791/791 792/792 840/840
f 840/840 792/792 841/841
f 792/792 793/793 841/841
f 841/841 793/793 842/842
f 793/793 794/794 842/842
f 842/842 794/794 843/843
f 794/794 795/795 843/843
f 843/843 795/795 844/844
f 795/795 796/796 844/844
f 844/844 796/796 845/845
f 796/796 797/797 845/845
f 845/845 797/797 846/846
f 797/797 798/798 846/846
f 846/846 798/798 847/847
f 798/798 799/799 847/847
f 847/847 799/799 848/848
f 799/799 800/800 848/848
f 848/848 800/800 849/849
f 800/800 801/801 849/849
f 849/849 801/801 850/850
f 801/801 802/802 850/850
f 850/850 802/802 851/851
f 802/802 803/803 851/851
f 851/851 803/803 852/852
f 803/803 804/804 852/852
f 852/852 804/804 853/853
f 804/804 805/805 853/853
f 853/853 805/805 854/854
f 805/805 806/806 854/854
f 854/854 806/806 855/855
f 806/806 807/807 855/855
f 855/855 807/807 856/856
f 807/807 808/808 856/856
f 856/856 808/808 857/857
f 808/808 809/809 857/857
f 857/857 809/809 858/858
f 809/809 810/810 858/858
f 858/858 810/810 859/859
f 810/810 811/811 859/859
f 859/859 811/811 860/860
f 811/811 812/812 860/860
f 860/860 812/812 861/861
f 812/812 813/813 861/861
f 861/861 813/813 862/862
f 813/813 814/814 862/862
f 862/862 814/814 863/863
f 814/814 815/815 863/863
f 863/863 815/815 864/864
f 815/815 816/816 864/864
f 864/864 816/816 865/865
f 816/816 817/817 865/865
f 865/865 817/817 866/866
f 817/817 818/818 866/866
f 866/866 818/818 867/867
f 818/818 819/819 867/867
f 867/867 819/819 868/868
f 820/820 821/821 869/869
f 869/869 821/821 870/870
f 821/821 822/822 870/870
f 870/870 822/822 871/871
f 822/822 823/823 871/871
f 871/871 823/823 872/872
f 823/823 824/824 872/872
f 872/872 824/824 873/873
f 824/824 825/825 873/873
f 873/873 825/825 874/874
f 825/825 826/826 874/874
f 874/874 826/826 875/875
f 826/826 827/827 875/875
f 875/875 827/827 876/876
f 827/827 828/828 876/876
f 876/876 828/828 877/877
f 828/828 829/829 877/877
f 877/877 829/829 878/878
f 829/829 830/830 878/878
f 878/878 830/830 879/879
f 830/830 831/831 879/879
f 879/879 831/831 880/880
f 831/831 832/832 880/880
f 880/880 832/832 881/881
f 832/832 833/833 881/881
f 881/881 833/833 882/882
f 833/833 834/834 882/882
f 882/882 834/834 883/883
f 834/834 835/835 883/883
f 883/883 835/835 884/884
f 835/835 836/836 884/884
f 884/884 836/836 885/885
f 836/836 837/837 885/885
f 885/885 837/837 886/886
f 837/837 838/838 886/886
f 886/886 838/838 887/887
f 838/838 839/839 887/887
f 887/887 839/839 888/888
f 839/839 840/840 888/888
f 888/888 840/840 889/889
f 840/840 841/841 889/889
f 889/889 841/841 890/890
f 841/841 842/842 890/890
f 890/890 842/842 891/891
f 842/842 843/843 891/891
f 891/891 843/843 892/892
f 843/843 844/844 892/892
f 892/892 844/844 893/893
f 844/844 845/845 893/893
f 893/893 845/845 894/894
f 845/845 846/846 894/894
f 894/894 846/846 895/895
f 846/846 847/847 895/895
f 895/895 847/847 896/896
f 847/847 848/848 896/896
f 896/896 848/848 897/897
f 848/848 849/849 897/897
f 897/897 849/849 898/898
f 849/849 850/850 898/898
f 898/898 850/850 899/899
f 850/850 851/851 899/899
f 899/899 851/851 900/900
f 851/851 852/852 900/900
f 900/900 852/852 901/901
f 852/852 853/853 901/901
f 901/901 853/853 902/902
f 853/853 854/854 902/902
f 902/902 854/854 903/903
f 854/854 855/855 903/903
f 903/903 855/855 904/904
f 855/855 856/856 904/904
f 904/904 856/856 905/905
f 856/856 857/857 905/905
f 905/905 857/857 906/906
f 857/857 858/858 906/906
f 906/906 858/858 907/907
f 858/858 859/859 907/907
f 907/907 859/859 908/908
f 859/859 860/860 908/908
f 908/908 860/860 909/909
f 860/860 861/861 909/909
f 909/909 861/861 910/910
f 861/861 862/862 910/910
f 910/910 862/862 911/911
f 862/862 863/863 911/911
f 911/911 863/863 912/912
f 863/863 864/864 912/912
f 912/912 864/864 913/913
f 864/864 865/865 913/913
f 913/913 865/865 914/914
f 865/865 866/866 914/914
f 914/914 866/866 915/915
f 866/866 867/867 915/915
f 915/915 867/867 916/916
f 867/867 868/868 916/916
f 916/916 868/868 917/917
f 869/869 870/870 918/918
f 918/918 870/870 919/919
f 870/870 871/871 919/919
f 919/919 871/871 920/920
f 871/871 872/872 920/920
f 920/920 872/872 921/921
f 872/872 873/873 921/921
f 921/921 873/873 922/922
f 873/873 874/874 922/922
f 922/922 874/874 923/923
f 874/874 875/875 923/923
f 923/923 875/875 924/924
f 875/875 876/876 924/924
f 924/924 876/876 925/925
f 876/876 877/877 925/925
f 925/925 877/877 926/926
f 877/877 878/878 926/926
f 926/926 878/878 927/927
f 878/878 879/879 927/927
f 927/927 879/879 928/928
f 879/879 880/880 928/928
f 928/928 880/880 929/929
f 880/880 881/881 929/929
f 929/929 881/881 930/930
f 881/881 882/882 930/930
f 930/930 882/882 931/931
f 882/882 883/883 931/931
f 931/931 883/883 932/932
f 883/883 884/884 932/932
f 932/932 884/884 933/933
f 884/884 885/885 933/933
f 933/933 885/885 934/934
f 885/885 886/886 934/934
f 934/934 886/886 935/935
f 886/886 887/887 935/935
f 935/935 887/887 936/936
f 887/887 888/888 936/936
f 936/936 888/888 937/937
f 888/888 889/889 937/937
f 937/937 889/889 938/938
f 889/889 890/890 938/938
f 938/938 890/890 939/939
f 890/890 891/891 939/939
f 939/939 891/891 940/940
f 891/891 892/892 940/940
f 940/940 892/892 941/941
f 892/892 893/893 941/941
f 941/941 893/893 942/942
f 893/893 894/894 942/942
f 942/942 894/894 943/943
f 894/894 895/895 943/943
f 943/943 895/895 944/944
f 895/895 896/896 944/944
f 944/944 896/896 945/945
f 896/896 897/897 945/945
f 945/945 897/897 946/946
f 897/897 898/898 946/946
f 946/946 898/898 947/947
f 898/898 899/899 947/947
f 947/947 899/899 948/948
f 899/899 900/900 948/948
f 948/948 900/900 949/949
f 900/900 901/901 949/949
f 949/949 901/901 950/950
f 901/901 902/902 950/950
f 950/950 902/902 951/951
f 902/902 903/903 951/951
f 951/951 903/903 952/952
f 903/903 904/904 952/952
f 952/952 904/904 953/953
f 904/904 905/905 953/953
f 953/953 905/905 954/954
f 905/905 906/906 954/954
f 954/954 906/906 955/955
f 906/906 907/907 955/955
f 955/955 907/907 956/956
f 907/907 908/908 956/956
f 956/956 908/908 957/957
f 908/908 909/909 957/957
f 957/957 909/909 958/958
f 909/909 910/910 958/958
f 958/958 910/910 959/959
f 910/910 911/911 959/959
f 959/959 911/911 960/960
f 911/911 912/912 960/960
f 960/960 912/912 961/961
f 912/912 913/913 961/961
f 961/961 913/913 962/962
f 913/913 914/914 962/962
f 962/962 914/914 963/963
f 914/914 915/915 963/963
f 963/963 915/915 964/964
f 915/915 916/916 964/964
f 964/964 916/916 965/965
f 916/916 917/917 965/965
f 965/965 917/917 966/966
f 967/967 968/968 969/969
f 967/967 969/969 970/970
f 967/967 970/970 971/971
f 967/967 971/971 972/972
f 967/967 972/972 973/973
f 967/967 973/973 974/974
f 967/967 974/974 975/975
f 967/967 975/975 976/976
f 967/967 976/976 977/977
f 967/967 977/977 978/978
f 967/967 978/978 979/979
f 967/967 979/979 980/980
f 967/967 980/980 981/981
f 967/967 981/981 982/982
f 967/967 982/982 983/983
f 967/967 983/983 984/984
f 967/967 984/984 985/985
f 967/967 985/985 986/986
f 967/967 986/986 987/987
f 967/967 987/987 988/988
f 967/967 988/988 989/989
f 967/967 989/989 990/990
f 967/967 990/990 991/991
f 967/967 991/991 992/992
